<svg width="147" height="146" viewBox="0 0 147 146" fill="none" xmlns="http://www.w3.org/2000/svg">
<g filter="url(#filter0_d_1_827)">
<circle cx="73.7054" cy="72.7313" r="60" transform="rotate(13.9977 73.7054 72.7313)" fill="#76F5CF"/>
</g>
<circle cx="74.0001" cy="72.9999" r="28" transform="rotate(13.9977 74.0001 72.9999)" stroke="black" stroke-width="2"/>
<circle cx="74.0001" cy="72.9999" r="54" transform="rotate(13.9977 74.0001 72.9999)" stroke="black" stroke-width="2"/>
<path d="M92.1092 62.2564C92.2428 61.7205 91.9167 61.1778 91.3808 61.0442L82.648 58.8673C82.1122 58.7337 81.5694 59.0598 81.4359 59.5957C81.3023 60.1316 81.6284 60.6743 82.1643 60.8079L89.9267 62.743L87.9917 70.5054C87.8581 71.0413 88.1842 71.584 88.7201 71.7176C89.256 71.8512 89.7987 71.5251 89.9323 70.9892L92.1092 62.2564ZM77.1077 71.6128L91.654 62.8717L90.6238 61.1574L76.0776 69.8985L77.1077 71.6128Z" fill="black"/>
<path d="M55.0152 82.8969C54.8816 83.4328 55.2077 83.9755 55.7436 84.1091L64.4763 86.286C65.0122 86.4196 65.5549 86.0935 65.6885 85.5576C65.8221 85.0217 65.496 84.479 64.9601 84.3454L57.1977 82.4104L59.1327 74.6479C59.2663 74.112 58.9402 73.5693 58.4043 73.4357C57.8684 73.3021 57.3257 73.6283 57.1921 74.1641L55.0152 82.8969ZM70.0167 73.5406L55.4704 82.2816L56.5006 83.9959L71.0468 75.2549L70.0167 73.5406Z" fill="black"/>
<path d="M62.0298 54.758C62.1634 54.2221 62.7061 53.896 63.242 54.0296L71.9747 56.2065C72.5106 56.3401 72.8367 56.8828 72.7031 57.4187C72.5695 57.9546 72.0268 58.2807 71.4909 58.1471L63.7285 56.2121L61.7934 63.9745C61.6598 64.5104 61.1171 64.8365 60.5812 64.7029C60.0454 64.5694 59.7192 64.0266 59.8528 63.4908L62.0298 54.758ZM70.884 70.0612L62.1429 55.515L63.8572 54.4848L72.5983 69.0311L70.884 70.0612Z" fill="black"/>
<path d="M85.0946 90.3953C84.961 90.9312 84.4183 91.2573 83.8824 91.1237L75.1497 88.9468C74.6138 88.8132 74.2877 88.2705 74.4213 87.7346C74.5548 87.1987 75.0976 86.8726 75.6334 87.0062L83.3959 88.9412L85.331 81.1788C85.4645 80.6429 86.0073 80.3168 86.5431 80.4504C87.079 80.584 87.4052 81.1267 87.2716 81.6626L85.0946 90.3953ZM76.2404 75.0921L84.9815 89.6384L83.2672 90.6685L74.5261 76.1223L76.2404 75.0921Z" fill="black"/>
<circle cx="73.5622" cy="72.5768" r="1.5" transform="rotate(13.9977 73.5622 72.5768)" fill="black"/>
<g clip-path="url(#clip0_1_827)">
<path d="M74.2931 35.2346L74.145 35.2369L73.015 28.8004L71.5756 28.8547L70.8584 35.3472L70.7103 35.3495L69.5507 26.3347L68.0543 26.3784L69.5237 36.5386L71.7399 36.4677L72.293 30.2585L72.3839 30.2457L73.3455 36.4086L75.5435 36.3403L76.3655 26.1171L74.869 26.1609L74.2931 35.2346Z" fill="black"/>
<path d="M83.439 36.156L82.4907 36.1411C82.1795 36.1155 81.8699 36.0723 81.5635 36.0117C81.1773 35.9832 80.8009 35.8766 80.4569 35.6983C80.1129 35.5201 79.8085 35.2739 79.5622 34.9746C79.281 34.5804 79.1358 34.1051 79.1487 33.6209L84.1769 34.547C84.2681 34.2377 84.3415 33.9234 84.3966 33.6056C84.6209 32.6478 84.4789 31.6405 83.9985 30.782C83.4285 30.0726 82.6162 29.6 81.7186 29.4554C80.821 29.3109 79.902 29.5046 79.1391 29.9993C78.3254 30.6801 77.7987 31.6435 77.6642 32.6968C77.5186 33.215 77.4822 33.758 77.5573 34.2912C77.6325 34.8244 77.8176 35.3361 78.1008 35.7938C78.7868 36.6289 79.7753 37.1577 80.8497 37.2642L81.8365 37.4223C82.2456 37.4635 82.6569 37.4799 83.0679 37.4717L83.439 36.156ZM80.1219 31.0497C80.341 30.8675 80.5996 30.739 80.877 30.6741C81.1544 30.6092 81.4431 30.6098 81.7203 30.6759C81.9714 30.7055 82.2125 30.7924 82.4248 30.93C82.6372 31.0675 82.8152 31.252 82.9452 31.4692C83.228 31.9598 83.3099 32.541 83.1738 33.0906L79.3689 32.4193C79.4955 31.9186 79.7588 31.4634 80.1296 31.1045L80.1219 31.0497Z" fill="black"/>
<path d="M95.4793 43.2654C95.8322 43.359 96.2049 43.3453 96.5498 43.226C96.8363 43.097 97.0885 42.9023 97.2859 42.6577L97.4105 42.7516L96.517 44.178L98.562 45.5247L99.2547 44.5167L98.2975 43.6484L100.102 41.053C100.373 40.7186 100.565 40.327 100.663 39.9077C100.762 39.4884 100.764 39.0522 100.67 38.6319C100.339 37.6844 99.6876 36.8825 98.829 36.3646L97.5885 35.4618L96.6932 36.4798L98.1645 37.573C98.6278 37.8761 99.0013 38.2983 99.2458 38.7954C99.3261 39.0003 99.3502 39.2229 99.3155 39.4401C99.2809 39.6574 99.1889 39.8614 99.0489 40.0309L98.8302 40.3219C98.7915 40.2615 98.7463 40.2055 98.6954 40.155C98.3969 39.8766 98.0759 39.6236 97.7355 39.3986C97.0389 38.8329 96.1802 38.5047 95.2845 38.4621C94.9398 38.4735 94.6032 38.5692 94.304 38.741C94.0048 38.9127 93.7523 39.1552 93.5683 39.4473C93.3795 39.6852 93.245 39.9617 93.1745 40.2574C93.104 40.553 93.0991 40.8605 93.1601 41.1583C93.3596 41.7954 93.786 42.3371 94.358 42.6803C94.6931 42.942 95.0731 43.1403 95.4793 43.2654ZM94.6997 40.2354C95.1632 39.5755 95.9295 39.6161 97.0194 40.3728L97.7849 40.9337C97.9206 41.0433 98.0488 41.1617 98.1688 41.2883L97.9215 41.6391C97.7652 41.869 97.5456 42.0484 97.2893 42.1555C96.9913 42.2827 96.6649 42.3287 96.3434 42.2889C95.9412 42.2243 95.5611 42.0608 95.2374 41.813C94.9366 41.6365 94.7073 41.3598 94.5893 41.0312C94.5477 40.8986 94.536 40.7584 94.5551 40.6208C94.5742 40.4831 94.6236 40.3515 94.6997 40.2354Z" fill="black"/>
<path d="M100.964 46.115L99.8075 44.8846L98.8213 45.7855L102.278 49.5156L103.264 48.6149L101.994 47.2333L103.422 45.9172C103.984 45.3261 104.69 44.8933 105.471 44.6621C105.757 44.5885 106.057 44.5964 106.338 44.6848C106.62 44.7732 106.871 44.9386 107.063 45.1623C107.175 45.2674 107.258 45.3994 107.304 45.5456C107.351 45.6919 107.36 45.8476 107.329 45.9981C107.19 46.3901 106.943 46.7343 106.616 46.9905L107.645 48.1087C108.253 47.634 108.688 46.9721 108.883 46.225C108.918 45.8986 108.876 45.5684 108.758 45.2617C108.641 44.9551 108.452 44.681 108.207 44.4622C108.035 44.2366 107.816 44.0516 107.564 43.9206C107.313 43.7896 107.035 43.7157 106.752 43.7042C106.469 43.6927 106.186 43.7438 105.925 43.854C105.664 43.9642 105.43 44.1306 105.241 44.3416L105.223 44.2142L106.472 42.6816L104.742 40.8074L103.759 41.7265L104.721 42.7614L100.964 46.115Z" fill="black"/>
<path d="M107.746 50.1382C107.267 50.3803 106.842 50.7182 106.498 51.1309C106.155 51.5437 105.899 52.0225 105.747 52.5381C105.555 53.6249 105.792 54.7443 106.41 55.6591C106.537 55.9013 106.723 56.1722 106.936 56.4953C107.167 56.8369 107.424 57.1608 107.703 57.4646L108.754 56.629C108.536 56.3996 108.352 56.1469 108.15 55.8967C107.964 55.6453 107.791 55.3845 107.631 55.1152C107.201 54.4891 107.033 53.7191 107.162 52.9704C107.284 52.5052 107.541 52.0871 107.902 51.7698L110.511 56.1956L111.374 55.7395C112.255 55.2966 112.936 54.537 113.282 53.6126C113.414 53.1905 113.45 52.7442 113.388 52.3063C113.327 51.8683 113.168 51.4495 112.925 51.0803C112.724 50.6619 112.432 50.2941 112.07 50.0042C111.708 49.7143 111.285 49.5097 110.834 49.4057C109.749 49.2427 108.643 49.5051 107.746 50.1382ZM110.403 50.8227C110.686 50.8674 110.954 50.9777 111.187 51.1448C111.42 51.312 111.611 51.5314 111.744 51.7855C111.874 51.9991 111.959 52.2369 111.994 52.4843C112.028 52.7317 112.013 52.9837 111.947 53.2248C111.734 53.7533 111.343 54.1898 110.841 54.4582L108.89 51.1474C109.334 50.9179 109.831 50.8094 110.33 50.833L110.403 50.8227Z" fill="black"/>
<path d="M110.864 67.1262L111.078 68.6383L115.318 68.1891C116.773 67.984 117.56 68.5606 117.685 69.7134C117.714 69.8962 117.702 70.0831 117.65 70.2607C117.598 70.4383 117.507 70.6022 117.385 70.7404C117.248 70.8872 117.084 71.0056 116.901 71.0887C116.719 71.1718 116.522 71.218 116.321 71.2247L111.403 71.7324L111.616 73.2445L116.534 72.7368C117.284 72.7019 117.993 72.39 118.526 71.8615C118.872 71.373 119.058 70.7894 119.06 70.1905C119.062 69.5917 118.879 69.0067 118.537 68.5157C118.374 68.3644 118.183 68.2473 117.975 68.1713C117.767 68.0954 117.545 68.0621 117.324 68.0735L117.306 67.946L121.801 67.4609L121.588 65.9488L110.864 67.1262Z" fill="black"/>
<path d="M117.431 78.7044L112.53 78.1506L112.846 75.2633L111.511 75.1357L111.195 78.0229L111.052 79.3808L110.789 81.8519L112.108 82.0003L112.356 79.68L117.273 80.2131L117.782 80.2714L118.177 80.3086L118.593 80.3615L119.033 76.3791L117.695 76.2333L117.431 78.7044Z" fill="black"/>
<path d="M121.053 78.7328C120.771 78.713 120.492 78.7987 120.27 78.9732C120.056 79.1491 119.919 79.4016 119.888 79.6774C119.869 79.8167 119.879 79.9582 119.917 80.0934C119.956 80.2286 120.021 80.3546 120.11 80.4636C120.195 80.5756 120.304 80.6678 120.429 80.7336C120.553 80.7995 120.691 80.8374 120.831 80.8449C120.97 80.8624 121.111 80.8518 121.246 80.8136C121.381 80.7755 121.507 80.7105 121.616 80.6228C121.831 80.4469 121.968 80.1943 121.999 79.9186C122.018 79.7793 122.007 79.6377 121.969 79.5025C121.931 79.3673 121.866 79.2413 121.777 79.1324C121.691 79.0184 121.582 78.9239 121.458 78.855C121.333 78.7861 121.195 78.7445 121.053 78.7328Z" fill="black"/>
<path d="M116.483 84.8766L116.04 86.2026L111.384 84.6293L111.919 83.0304L110.652 82.5958L110.117 84.1948L109.637 85.656L109.031 87.4136L110.298 87.8481L110.901 86.0723L112.732 86.6875C113.5 86.9152 114.197 87.3348 114.759 87.9067C114.951 88.1325 115.074 88.4082 115.116 88.7017C115.157 88.9952 115.114 89.2944 114.992 89.5644C114.954 89.7126 114.88 89.8488 114.776 89.9608C114.672 90.0728 114.541 90.157 114.397 90.2058C113.98 90.2678 113.554 90.2119 113.168 90.0446L112.703 91.485C113.41 91.7788 114.191 91.8441 114.937 91.6718C115.231 91.5474 115.491 91.3545 115.695 91.1092C115.899 90.8638 116.042 90.5732 116.111 90.2614C116.243 90.0047 116.313 89.7203 116.315 89.4314C116.317 89.1424 116.251 88.8571 116.123 88.5984C115.994 88.3397 115.806 88.1149 115.575 87.9423C115.344 87.7697 115.075 87.6541 114.79 87.6049L114.861 87.4464L116.77 87.8276L117.161 86.6576L117.603 85.3134L116.483 84.8766Z" fill="black"/>
<path d="M114.07 97.888C113.801 97.9587 113.57 98.132 113.427 98.3709C113.284 98.6099 113.239 98.8953 113.304 99.1664C113.371 99.4405 113.545 99.6767 113.786 99.8231C114.032 99.9676 114.324 100.013 114.602 99.9496C114.738 99.9137 114.866 99.8509 114.978 99.7649C115.09 99.6789 115.184 99.5716 115.254 99.4489C115.328 99.3317 115.376 99.2001 115.395 99.0629C115.414 98.9256 115.404 98.7858 115.365 98.6529C115.332 98.5164 115.272 98.3881 115.188 98.2752C115.105 98.1624 115 98.0675 114.879 97.9961C114.758 97.9248 114.624 97.8784 114.485 97.8599C114.346 97.8413 114.205 97.8509 114.07 97.888Z" fill="black"/>
<path d="M112.862 94.3237L111.604 96.4519L107.368 93.9091L108.853 91.4145L107.701 90.7409L106.14 93.3576L105.434 94.5348L104.233 96.5434L105.388 97.2353L106.589 95.2266L110.822 97.7512L111.977 98.443L114.017 95.0155L112.862 94.3237Z" fill="black"/>
<path d="M102.248 98.7744L105.386 101.695C106.429 102.644 106.521 103.56 105.771 104.427C105.651 104.571 105.504 104.688 105.337 104.772C105.17 104.856 104.988 104.906 104.802 104.917C104.61 104.913 104.421 104.869 104.247 104.788C104.072 104.707 103.917 104.591 103.789 104.447L100.16 101.075L99.1296 102.187L102.74 105.561C103.26 106.113 103.97 106.445 104.726 106.488C105.06 106.478 105.387 106.396 105.687 106.248C105.986 106.1 106.25 105.89 106.461 105.631C106.837 105.284 107.091 104.825 107.185 104.321C107.198 104.1 107.163 103.878 107.082 103.671C107.002 103.465 106.878 103.278 106.719 103.123L106.834 103.014L107.918 103.865L108.871 102.857L103.312 97.6397L102.248 98.7744Z" fill="black"/>
<path d="M97.9728 104.245C97.5602 104.127 97.1253 104.11 96.7048 104.195C96.2842 104.28 95.8902 104.465 95.5559 104.734C95.1286 105 94.8002 105.398 94.6213 105.869C94.5637 106.08 94.5498 106.3 94.5803 106.516C94.6107 106.732 94.685 106.94 94.7985 107.126L94.6713 107.144L94.1373 106.383C93.7468 105.875 93.5465 105.246 93.5713 104.605C93.6263 104.3 93.7453 104.011 93.9204 103.756C94.0954 103.5 94.3225 103.285 94.5868 103.124L96.5533 101.677L95.6926 100.572L93.9134 101.9C93.4554 102.178 93.0574 102.544 92.7426 102.978C92.4278 103.411 92.2027 103.903 92.0804 104.425C92.0003 105.511 92.3378 106.587 93.0237 107.432L96.9815 113.136L98.1128 112.344L97.4238 111.141C97.5722 111.306 97.7524 111.439 97.9537 111.532C98.155 111.625 98.373 111.676 98.5945 111.682C99.1052 111.675 99.6006 111.507 100.011 111.203C100.379 110.976 100.686 110.664 100.908 110.294C101.131 109.923 101.261 109.504 101.288 109.073C101.262 108.011 100.89 106.986 100.227 106.156C99.7001 105.293 98.9097 104.623 97.9728 104.245ZM99.0384 110.356C98.8281 110.508 98.584 110.606 98.3273 110.642C98.0707 110.678 97.8091 110.651 97.565 110.564C96.9835 110.316 96.4949 109.891 96.1693 109.348L95.8686 108.926C95.4684 108.423 95.2441 107.802 95.2298 107.158C95.2411 106.898 95.317 106.645 95.4507 106.422C95.5845 106.198 95.7718 106.012 95.9957 105.88C96.2137 105.722 96.4667 105.62 96.733 105.583C96.9992 105.545 97.2706 105.573 97.5236 105.664C98.1435 105.946 98.6624 106.411 99.0101 106.997C99.4529 107.559 99.7226 108.237 99.7863 108.95C99.799 109.23 99.7362 109.508 99.6046 109.755C99.473 110.003 99.2775 110.21 99.0384 110.356Z" fill="black"/>
<path d="M82.0076 114.299C81.6548 114.161 81.2705 114.125 80.8985 114.195C80.525 114.259 80.1761 114.424 79.8897 114.672C79.6176 114.915 79.4063 115.218 79.2726 115.558C79.1438 115.913 79.1083 116.296 79.1694 116.669C79.2366 117.042 79.401 117.39 79.6458 117.679C79.8885 117.952 80.1915 118.164 80.5307 118.298C80.8841 118.43 81.2678 118.46 81.6373 118.383C82.0136 118.338 82.3668 118.178 82.6486 117.925C82.9253 117.679 83.1366 117.368 83.2632 117.02C83.3929 116.672 83.4294 116.295 83.3689 115.928C83.3051 115.554 83.1404 115.205 82.8925 114.918C82.6549 114.639 82.3502 114.427 82.0076 114.299Z" fill="black"/>
<path d="M63.4102 110.288C62.5425 110.062 61.6405 110.001 60.7503 110.106L60.7481 111.407C61.4448 111.304 62.1547 111.337 62.8393 111.502C65.0726 112.079 65.8702 113.657 65.1958 116.242C65.0172 117.244 64.4869 118.149 63.7004 118.794C63.3531 119.031 62.9558 119.185 62.5394 119.244C62.123 119.302 61.6987 119.264 61.2993 119.132C60.9308 119.045 60.5916 118.862 60.3156 118.602C60.0353 118.347 59.824 118.025 59.7014 117.667L58.4167 118.424C58.5614 118.917 58.8707 119.346 59.2929 119.638C59.7974 120.01 60.3711 120.276 60.9802 120.422C61.5869 120.611 62.2278 120.663 62.8569 120.574C63.4859 120.486 64.0874 120.259 64.6182 119.909C65.7214 119.063 66.4737 117.839 66.7308 116.471C67.5728 113.101 66.4719 111.083 63.4102 110.288Z" fill="black"/>
<path d="M58.6412 109.753C58.4995 109.318 58.2731 108.915 57.975 108.568C57.6769 108.221 57.313 107.937 56.9045 107.732C56.496 107.527 56.0509 107.405 55.5951 107.374C55.1393 107.342 54.6819 107.401 54.2492 107.548C53.3161 107.99 52.5739 108.754 52.1594 109.7C51.6235 110.607 51.4319 111.676 51.6194 112.712C51.7611 113.147 51.9875 113.55 52.2857 113.897C52.5838 114.244 52.9476 114.528 53.3561 114.733C53.7646 114.938 54.2097 115.06 54.6655 115.091C55.1214 115.123 55.5788 115.064 56.0115 114.917C56.9397 114.469 57.6799 113.706 58.1012 112.764C58.6325 111.857 58.8238 110.789 58.6412 109.753ZM56.702 112.051C56.4344 112.666 55.9917 113.187 55.4292 113.55C55.2079 113.679 54.9569 113.749 54.7006 113.753C54.4444 113.756 54.1915 113.693 53.9665 113.57C53.7364 113.462 53.5376 113.296 53.3884 113.09C53.2393 112.884 53.1448 112.643 53.1137 112.39C53.0869 111.72 53.2434 111.056 53.5663 110.468C53.8281 109.85 54.2722 109.328 54.8391 108.97C55.0585 108.835 55.3102 108.762 55.5676 108.758C55.825 108.755 56.0786 108.821 56.3018 108.949C56.5351 109.053 56.7367 109.218 56.8865 109.425C57.0362 109.632 57.1287 109.875 57.1546 110.13C57.1815 110.8 57.025 111.464 56.702 112.051Z" fill="black"/>
<path d="M51.334 104.503L48.6501 107.835C47.765 108.926 46.8632 109.109 45.9396 108.348C45.7879 108.24 45.6601 108.103 45.5642 107.944C45.4683 107.785 45.4065 107.607 45.3825 107.423C45.3742 107.039 45.5144 106.666 45.7739 106.383L48.9367 102.5L47.7458 101.553L44.5804 105.418C44.0915 105.958 43.8145 106.657 43.8005 107.386C43.8324 107.726 43.9368 108.056 44.1066 108.352C44.2764 108.649 44.5077 108.905 44.7849 109.105C45.1657 109.445 45.6432 109.657 46.1504 109.711C46.3692 109.711 46.5853 109.664 46.7838 109.571C46.9822 109.479 47.1583 109.345 47.2996 109.178L47.4242 109.272L46.6585 110.42L47.7456 111.289L52.4757 105.364L51.334 104.503Z" fill="black"/>
<path d="M42.789 101.527L43.3561 101.076C43.6997 100.843 43.9915 100.542 44.2134 100.191C44.4352 99.8397 44.5823 99.4465 44.6454 99.0359C44.6138 98.1387 44.2558 97.2839 43.6387 96.6324C43.4157 96.3666 43.1927 96.1007 42.9749 95.8713C42.757 95.6419 42.5028 95.4177 42.2485 95.1934L41.3273 96.1594L41.9757 96.8111C42.1583 96.9919 42.3282 97.1853 42.484 97.3898C42.845 97.7628 43.0591 98.2539 43.087 98.7725C43.0495 99.0075 42.964 99.2321 42.8358 99.4324C42.7077 99.6327 42.5396 99.8043 42.3421 99.9366L41.3926 100.702L39.7226 102.015L37.4901 99.3386L36.4392 100.174L38.6742 102.869L36.8742 104.312L37.8387 105.495L39.6206 104.055L40.8314 105.538L41.8642 104.705L40.6715 103.219L42.7526 101.532L42.789 101.527Z" fill="black"/>
<path d="M34.4426 92.9868C34.4709 92.7717 34.5552 92.5678 34.6874 92.3959C34.8195 92.2239 34.9946 92.09 35.195 92.0076L35.5252 91.8496C35.5252 91.8496 35.5432 91.9771 35.556 92.0682C35.6814 92.4552 35.8398 92.8307 36.0296 93.1905C36.3789 94.0152 36.9762 94.7104 37.7385 95.1792C38.0351 95.3211 38.3582 95.3991 38.6868 95.4084C39.0154 95.4176 39.3423 95.3577 39.6463 95.2326C39.9503 95.1074 40.2248 94.9198 40.4518 94.6819C40.6789 94.4439 40.8536 94.1608 40.9647 93.851C41.0943 93.2325 41.0034 92.5879 40.7079 92.0293C40.5204 91.6255 40.2613 91.2591 39.9432 90.948C39.6662 90.7049 39.3291 90.5407 38.9672 90.4725C38.6581 90.442 38.3463 90.486 38.0577 90.6007L38.0372 90.455L39.4985 89.6358L38.3407 87.4766L37.2488 88.0207L37.6988 89.2393L34.8569 90.6618C34.4756 90.8377 34.1361 91.0929 33.861 91.4103C33.5859 91.7278 33.3815 92.1003 33.2613 92.5031C33.1063 93.4957 33.2953 94.5116 33.797 95.3818L34.4547 96.7568L35.7258 96.2989L34.9414 94.5515C34.6373 94.0845 34.465 93.5438 34.4426 92.9868ZM38.7138 91.3072C39.0334 91.5626 39.2891 91.8892 39.4605 92.2609C39.6133 92.5713 39.6628 92.9224 39.6018 93.2629C39.5667 93.4051 39.4999 93.5376 39.4066 93.6504C39.3133 93.7633 39.1958 93.8537 39.0629 93.9148C38.3349 94.2776 37.6834 93.8677 37.0359 92.6956L36.6371 91.8415C36.5634 91.6762 36.5079 91.5033 36.4717 91.3259L36.854 91.1419C37.1145 91.0417 37.3944 91.0022 37.6725 91.0265C38.0389 91.021 38.3996 91.1183 38.7138 91.3072Z" fill="black"/>
<path d="M34.3604 87.6661C34.8888 87.5642 35.391 87.3559 35.8363 87.0535C36.2816 86.7512 36.6609 86.3612 36.9509 85.9074C37.4486 84.9234 37.5408 83.783 37.208 82.7312C37.1541 82.3487 36.9885 81.9633 36.8566 81.5546C36.7311 81.1632 36.5781 80.7812 36.3987 80.4114L35.1352 80.924C35.2724 81.239 35.4096 81.5542 35.5312 81.8901C35.6518 82.223 35.7553 82.5619 35.8412 82.9054C35.9536 83.2499 35.9968 83.6133 35.9681 83.9745C35.9395 84.3357 35.8395 84.6876 35.6741 85.0099C35.2586 85.5655 34.6731 85.9696 34.0068 86.1608C33.3405 86.352 32.6299 86.3198 31.9834 86.069C31.7132 85.9149 31.4799 85.7035 31.2999 85.4497C31.1199 85.1958 30.9976 84.9056 30.9414 84.5995C30.8396 84.2278 30.842 83.8354 30.9484 83.4652C31.0512 83.0834 31.2515 82.7351 31.5294 82.4543L30.38 81.5387C29.9417 81.8827 29.642 82.3735 29.536 82.921C29.3955 83.5698 29.4203 84.2436 29.6082 84.8803C29.7028 85.3972 29.9037 85.8889 30.1982 86.3239C30.4926 86.759 30.8742 87.128 31.3187 87.4075C31.784 87.6486 32.2921 87.7956 32.814 87.84C33.336 87.8844 33.8614 87.8252 34.3604 87.6661Z" fill="black"/>
<path d="M29.9675 79.5345L29.9107 77.6845L32.5868 77.5859L33.2962 77.4858C33.7137 77.5073 34.131 77.4421 34.522 77.2942C34.913 77.1464 35.2692 76.9191 35.5682 76.6268C36.0734 75.8836 36.2893 74.9807 36.1751 74.0887C36.1454 73.7525 36.0983 73.4181 36.0338 73.0868C35.9902 72.7771 35.944 72.4492 35.8952 72.1031L34.5673 72.2903C34.6161 72.6364 34.6598 72.946 34.6983 73.2193C34.7368 73.4925 34.7702 73.7294 34.8036 73.9662C34.8844 74.4807 34.7583 75.0063 34.453 75.4277C34.2865 75.5971 34.0859 75.729 33.8644 75.8147C33.643 75.9004 33.4059 75.9378 33.1689 75.9246L32.5323 76.0143L29.838 76.1154L29.7215 72.6575L28.3756 72.7172L28.5103 76.1725L26.2214 76.2538L26.2683 77.7706L28.5572 77.6895L28.6322 79.5368L29.9675 79.5345Z" fill="black"/>
<path d="M37.3926 61.9331C37.7108 61.8053 37.9979 61.6108 38.2348 61.3627C38.4718 61.1146 38.6532 60.8186 38.7666 60.4946C38.9535 60.0687 38.9908 59.592 38.8727 59.142C38.722 58.6896 38.4257 58.3 38.0301 58.0344L38.0147 57.9251L39.474 58.4069L40.3377 56.1113L39.2161 55.6563L38.6769 56.5684L37.0802 55.9017L32.9029 54.1682L32.3239 55.5875L36.1247 57.1511C36.7087 57.3471 37.2198 57.7155 37.5908 58.2079C37.6939 58.4219 37.7482 58.6563 37.7496 58.8939C37.751 59.1315 37.6995 59.3664 37.599 59.5816C37.4691 59.9424 37.2053 60.2392 36.8624 60.41C36.6896 60.4788 36.5045 60.5113 36.3187 60.5055C36.1328 60.4998 35.9501 60.4559 35.7818 60.3766L31.1501 58.447L30.5685 59.8482L35.2001 61.7777C35.5367 61.9488 35.9042 62.0507 36.2807 62.0774C36.6573 62.1041 37.0353 62.055 37.3926 61.9331Z" fill="black"/>
<path d="M37.9588 52.3965C38.5329 52.1904 39.0562 51.8631 39.4932 51.437L40.8486 50.2612C41.0038 50.1131 41.1917 50.0038 41.3972 49.9424C41.4898 49.9249 41.5853 49.9293 41.6759 49.9552C41.7665 49.9812 41.8497 50.0279 41.9192 50.0917C42.0499 50.1814 42.1483 50.3109 42.1995 50.461C42.2508 50.6111 42.2522 50.7738 42.2036 50.9248C42.06 51.472 41.8034 51.9828 41.4504 52.4245C41.241 52.7278 41.016 53.0201 40.7761 53.2999L39.8782 54.2997L40.9002 55.2333C41.1784 54.9753 41.4368 54.6966 41.6731 54.3997C41.9906 54.0208 42.2878 53.6254 42.5636 53.2151C43.1925 52.4408 43.5999 51.5101 43.7423 50.5221C43.7635 50.1744 43.6856 49.8277 43.5178 49.5224C43.3499 49.2171 43.099 48.9659 42.7942 48.7978C42.593 48.633 42.3573 48.5158 42.1046 48.4549C41.8519 48.3941 41.5887 48.3911 41.3347 48.4462C40.69 48.6426 40.1027 48.9932 39.6236 49.4678L38.5336 50.4203C38.3532 50.6032 38.1419 50.7525 37.9094 50.8614C37.8228 50.8989 37.7275 50.9119 37.6341 50.8988C37.5406 50.8858 37.4525 50.8472 37.3794 50.7874C37.2453 50.6912 37.1475 50.5526 37.1016 50.394C37.0557 50.2353 37.0643 50.0658 37.1262 49.9127C37.3188 49.3194 37.6106 48.7631 37.9889 48.2676L38.5019 47.5636L39.15 46.7662L38.172 45.8822C37.935 46.1129 37.7158 46.3612 37.5161 46.6249C37.2923 46.89 37.0837 47.1676 36.8912 47.4563C36.2234 48.2811 35.7805 49.2653 35.6058 50.3129C35.5632 50.6738 35.6282 51.0393 35.7928 51.3633C35.9573 51.6873 36.2139 51.9553 36.5303 52.1334C36.7286 52.2913 36.9627 52.3979 37.2118 52.4438C37.4609 52.4897 37.7174 52.4734 37.9588 52.3965Z" fill="black"/>
<path d="M50.84 39.284C51.1636 39.4659 51.5284 39.5616 51.8995 39.5619C52.2711 39.5627 52.6357 39.4599 52.9522 39.265C53.2759 39.071 53.5439 38.7964 53.7302 38.4678C53.9 38.1409 53.9888 37.7779 53.9892 37.4094C53.9876 37.0314 53.8841 36.6609 53.6896 36.3369C53.5026 36.0127 53.2273 35.7486 52.8958 35.5755C52.5808 35.3884 52.2206 35.2914 51.8544 35.295C51.4769 35.2955 51.1067 35.3991 50.7836 35.5946C50.4599 35.7886 50.1919 36.0632 50.0056 36.3917C49.8358 36.7186 49.747 37.0816 49.7466 37.4501C49.7482 37.8258 49.8505 38.1941 50.0428 38.5167C50.2352 38.8393 50.5105 39.1043 50.84 39.284Z" fill="black"/>
</g>
<defs>
<filter id="filter0_d_1_827" x="10.6913" y="10.717" width="126.028" height="126.028" filterUnits="userSpaceOnUse" color-interpolation-filters="sRGB">
<feFlood flood-opacity="0" result="BackgroundImageFix"/>
<feColorMatrix in="SourceAlpha" type="matrix" values="0 0 0 0 0 0 0 0 0 0 0 0 0 0 0 0 0 0 127 0" result="hardAlpha"/>
<feOffset dy="1"/>
<feGaussianBlur stdDeviation="1.5"/>
<feComposite in2="hardAlpha" operator="out"/>
<feColorMatrix type="matrix" values="0 0 0 0 0 0 0 0 0 0 0 0 0 0 0 0 0 0 0.4 0"/>
<feBlend mode="normal" in2="BackgroundImageFix" result="effect1_dropShadow_1_827"/>
<feBlend mode="normal" in="SourceGraphic" in2="effect1_dropShadow_1_827" result="shape"/>
</filter>
<clipPath id="clip0_1_827">
<rect width="96" height="93" fill="white" transform="translate(19.9786 33.156) rotate(-8.02466)"/>
</clipPath>
</defs>
</svg>
