<svg width="1440" height="341" viewBox="0 0 1440 341" fill="none" xmlns="http://www.w3.org/2000/svg">
<path d="M-0.798641 96.25V99.0625V101.875H0.281037H3.09759H4.83447V104.688V107.5H5.91414H8.7307H10.4676V110.312V113.125H11.5473H14.3638H16.1007V115.937V118.75H17.1804H19.9969H21.7338V121.563V124.375H22.8135H25.63H27.3669V125.398V127.188V130H28.4466H31.2631H33V125.398V124.375V121.563V118.75H31.2631H28.4466H27.3669V115.937V113.125H25.63H22.8135H21.7338V110.312V107.5H19.9969H17.1804H16.1007V104.688V101.875H14.3638H11.5473H10.4676V99.0625V96.25H8.7307H5.91414H4.83447V93.4375V90.625H3.09759H0.281037H-0.798641V87.8125V85H-2.53552H-5V96.25H-2.53552H-0.798641Z" fill="black"/>
<path d="M-0.813386 62.8462V65.6538V68.4615V74.0769V76.8846V79.6923V85.3077H0.262503H3.06917H4.79995V88.1154V90.9231H5.87584H8.68251H10.4133V96.5385H11.4892H14.2958H16.0266V99.3462V102.154H17.1025H19.9092H21.64V104.962V107.769H22.7158H25.5225H27.2533V110.577V113.385H28.3292H31.1359H32.8666V119H33.9425H36.7492H38.48V116.192V113.385V110.577V107.769H36.7492H33.9425H32.8666V102.154H31.1359H28.3292H27.2533V99.3462V96.5385H25.5225H22.7158H21.64V90.9231H19.9092H17.1025H16.0266V88.1154V85.3077H14.2958H11.4892H10.4133V79.6923H8.68251H5.87584H4.79995V74.0769V71.2692V68.4615V65.6538V62.8462H5.87584H8.68251H10.4133V65.6538V68.4615V74.0769V76.8846V79.6923H11.4892H14.2958H16.0266V82.5V85.3077H17.1025H19.9092H21.64V88.1154V90.9231H22.7158H25.5225H27.2533V93.7308V96.5385H28.3292H31.1359H32.8666V99.3462V102.154H33.9425H36.7492H38.48V104.962V107.769H39.5559H42.3625H44.0933V104.962V102.154V99.3462V96.5385H42.3625H39.5559H38.48V93.7308V90.9231H36.7492H33.9425H32.8666V88.1154V85.3077H31.1359H28.3292H27.2533V82.5V79.6923H25.5225H22.7158H21.64V76.8846V74.0769H19.9092H17.1025H16.0266V71.2692V68.4615V65.6538V62.8462H17.1025H19.9092H21.64V65.6538V68.4615V74.0769H22.7158H25.5225H27.2533V76.8846V79.6923H28.3292H31.1359H32.8666V85.3077H33.9425H36.7492H38.48V88.1154V90.9231H39.5559H42.3625H44.0933V96.5385H45.1692H47.9759H49.7066V93.7308V90.9231V88.1154V85.3077H47.9759H45.1692H44.0933V82.5V79.6923H42.3625H39.5559H38.48V76.8846V74.0769H36.7492H33.9425H32.8666V68.4615H31.1359H28.3292H27.2533V65.6538V62.8462H28.3292H31.1359H32.8666V65.6538V68.4615H33.9425H36.7492H38.48V71.2692V74.0769H39.5559H42.3625H44.0933V76.8846V79.6923H45.1692H47.9759H49.7066V82.5V85.3077H50.7825H53.5892H55.32V79.6923H56.3959H59.2025H60.9333V82.5V85.3077H62.0092H64.8159H66.5466V82.5V79.6923V76.8846V74.0769V68.4615H67.6225H70.4292H72.16V71.2692V74.0769V76.8846V79.6923V82.5V85.3077H73.2359H76.0425H77.7733V79.6923V76.8846V74.0769V71.2692V68.4615H78.8492H81.6559H83.3867V71.2692V74.0769V76.8846V79.6923V82.5V85.3077H84.4625H87.2692H89V82.5V79.6923V76.8846V74.0769V68.4615V65.6538V62.8462V60.0385V57.2308V56.0765V54.4231V51.6154H87.2692H84.4625H83.3867V54.4231V56.0765V57.2308H81.6559H78.8492H77.7733V56.0765V54.4231V51.6154H76.0425H73.2359H72.16V54.4231V56.0765V57.2308H70.4292H67.6225H66.5466V56.0765V54.4231V51.6154H64.8159H62.0092H60.9333V54.4231V56.0765V57.2308H59.2025H56.3959H55.32V56.0765V54.4231V51.6154H53.5892H50.7825H49.7066V54.4231V56.0765V57.2308H47.9759H45.1692H44.0933V56.0765V54.4231V51.6154H42.3625H39.5559H38.48V48.8077V46H36.7492H33.9425H32.8666V51.6154H31.1359H28.3292H27.2533V54.4231V56.0765V57.2308H25.5225H22.7158H21.64V56.0765V54.4231V51.6154H19.9092H17.1025H16.0266V54.4231V56.0765V57.2308H14.2958H11.4892H10.4133V56.0765V54.4231V51.6154H8.68251H5.87584H4.79995V54.4231V56.0765V57.2308H3.06917H0.262503H-0.813386V56.0765V54.4231V51.6154H-2.54417H-5V62.8462H-2.54417H-0.813386Z" fill="black"/>
<path d="M-0.925645 130.333V133.167V136H0.121396H2.85281H4.53718V138.833V139.172V141.667V144.5V147.333V150.167V153H5.58422H8.31563H10V147.333V144.5V141.667V139.172V136V133.167V130.333H8.31563H5.58422H4.53718V127.5V125.698V124.667H2.85281H0.121396H-0.925645V121.833V119H-2.61002H-5V130.333H-2.61002H-0.925645Z" fill="black"/>
<path d="M-0.716461 113.143V118.714H0.384336H3.25598H5.02683V124.286H6.12763H8.99927H10.7701V125.299V129.857H11.8709H14.7426H16.5134V132.643V135.429H17.6142H20.4859H22.2567V138.547V141H23.3575H26.2292H28V138.547V138.214V135.429V132.643V129.857H26.2292H23.3575H22.2567V125.299V124.286H20.4859H17.6142H16.5134V121.5V118.714H14.7426H11.8709H10.7701V113.143H8.99927H6.12763H5.02683V110.357V107.571H3.25598H0.384336H-0.716461V102H-2.48731H-5V113.143H-2.48731H-0.716461Z" fill="black"/>
<path d="M314.623 129.77V128.988C314.888 129.246 315.161 129.496 315.404 129.77C315.497 129.848 315.583 129.934 315.669 130.02C316.614 130.927 317.551 131.826 318.48 132.74C319.41 133.655 320.261 134.507 321.143 135.39L321.292 135.539C322.229 136.477 323.182 137.399 324.103 138.337C324.173 138.408 324.244 138.47 324.306 138.541H325.868V157.912H331.491V163.54H337.113V169.168H342.736V157.912H337.113V152.283H331.491V138.541H337.113V152.283H342.736V157.912H348.358V174.796H353.981V157.912H359.604V174.796H365.226V180.425H370.849V186.053H376.472V202H382.094V157.912H376.472V163.54H370.849V157.912H365.226V152.283H359.604V146.655H353.981V138.541H359.604V146.655H365.226V152.283H370.849V157.912H376.472V138.541H382.094V157.912H387.717V138.541H393.34V157.912H398.962V163.54H404.585V141.027H398.962V138.541H458V125.158H455.189V107.257H449.566V101.628H443.943V96H438.321V107.257H443.943V112.885H449.566V125.158H427.075V107.257H421.453V125.158H415.83V107.257H410.208V125.158H404.585V107.257H398.962V125.158H393.34V107.257H387.717V125.158H382.094V107.257H376.472V125.158H370.849V107.257H365.226V125.158H359.604V107.257H353.981V125.158H348.358V107.257H342.736V125.158H337.113V107.257H331.491V125.158H325.868V107.257H320.245V125.158H314.623V107.257H309V129.77H314.623ZM365.226 138.541H370.849V141.027H365.226V138.541ZM342.736 138.541H348.358V146.655H342.736V138.541ZM326.938 126.948H329.749V135.39H326.938V126.948Z" fill="black"/>
<path d="M399 202V162.745H393V157H387V202H399Z" fill="black"/>
<path d="M410 163H404V202H410V163Z" fill="black"/>
<path d="M421 163H415V202H421V163Z" fill="black"/>
<path d="M432 163H427V202H432V163Z" fill="black"/>
<path d="M444 163H438V202H444V163Z" fill="black"/>
<path d="M145 197H139V202H145V197Z" fill="black"/>
<path d="M146.15 186H145V188.75V191.5V194.25V197H146.15H149.15H151V194.25V191.5V188.75V186H149.15H146.15Z" fill="black"/>
<path d="M139 194.25V191.5V188.75V186H137.767H135.767H135V188.75V191.5V194.25V197H135.767H137.767H139V194.25Z" fill="black"/>
<path d="M196 181H190V202H196V181Z" fill="black"/>
<path d="M185 181H179V202H185V181Z" fill="black"/>
<path d="M174 181H168V202H174V181Z" fill="black"/>
<path d="M156.5 186.172V202H162V180.586H156.5V175H151V186.172H156.5Z" fill="black"/>
<path d="M355.667 175H354.15H353V177.75V180.5V183.25V186H354.15H357.15H359V183.25V180.5V178.865V177.75V175H357.15H355.667Z" fill="black"/>
<path d="M344.15 175H343V177.75V180.5V183.25V186H344.15H347.15H349V183.25V180.5V177.75V175H347.15H344.15Z" fill="black"/>
<path d="M318.15 186H320V183.25V180.5V177.75V175H318.15H315.15H314V177.75V180.5V183.25V186H315.15H318.15Z" fill="black"/>
<path d="M237.15 175H236V177.75V180.5V183.25V186V188.75V191.5V194.25V197H237.15H240.15H242V194.25V191.5V188.75V186V183.25V180.5V177.75V175H240.15H237.15Z" fill="black"/>
<path d="M225.15 175H224V177.75V180.5V183.25V186V188.75V191.5V194.25V197H225.15H228.15H230V194.25V191.5V188.75V186V183.25V180.5V177.75V175H228.15H225.15Z" fill="black"/>
<path d="M213.958 175H213V177.75V180.5V183.25V186V188.75V191.5V194.25V197H213.958H216.458H218V194.25V191.5V188.75V186V183.25V180.5V177.75V175H216.458H213.958Z" fill="black"/>
<path d="M203.15 174.6H202V171.8V169H200.15H197.15H196V171.8V174.6V177.4V180.2H197.15H200.15H202V183V185.8V188.6V191.4V194.2V197H203.15H206.15H208V194.2V191.4V188.6V185.8V183V180.2V177.4V174.6H206.15H203.15Z" fill="black"/>
<path d="M140.15 175H139V177.75V180.5V183.25V186H140.15H143.15H145V183.25V180.5V177.75V175H143.15H140.15Z" fill="black"/>
<path d="M135 183.25V180.5V177.75V175H133.317H133.15H130.15H129V177.75V180.5V183.25V186H130.15H133.15H133.317H135V183.25Z" fill="black"/>
<path d="M332.15 169H331V172V175V178V181H332.15H335.15H337V178V175V172V169H335.15H332.15Z" fill="black"/>
<path d="M190 178V175V172V169H188.458H185.958H185V172V175V178V181H185.958H188.458H190V178Z" fill="black"/>
<path d="M179 178V175V172V169H177.458H174.958H174V172V175V178V181H174.958H177.458H179V178Z" fill="black"/>
<path d="M168 178V175V172V169H166.304H163.554H162.5V166V163H160.804H158.054H157V166V169V172V175H158.054H160.804H162.5V178V181H163.554H166.304H168V178Z" fill="black"/>
<path d="M323.304 175H325V172.143V169.286V166.429V163.571H323.304H320.554H319.5V160.714V157.857V155V152.143V149.286V146.429V143.571V140.714V138.198V137.857V135H317.804H315.054H314V137.857V138.198V140.714V143.571V146.429V149.286V152.143V155V157.857V160.714V163.571V166.429V169.286H315.054H317.804H319.5V172.143V175H320.554H323.304Z" fill="black"/>
<path d="M145 169V175H146.15H149.15H151V172V169V166V163H149.15H146.15H145V166V169Z" fill="black"/>
<path d="M137.458 175H139V172V169V166V163H137.458H134.958H134V160V157H132.597H132.458H129.958H129V160V163V166V169H129.958H132.458H132.597H134V172V175H134.958H137.458Z" fill="black"/>
<path d="M436.15 163H438V160.25V157.5V154.75V152V149.25V146.5V143.75V141H436.15H433.15H432V143.75V146.5V149.25V152V154.75V157.5V160.25V163H433.15H436.15Z" fill="black"/>
<path d="M425.15 163H427V160.25V157.5V154.75V152V149.25V146.5V143.75V141H425.15H422.15H421V143.75V146.5V149.25V152V154.75V157.5V160.25V163H422.15H425.15Z" fill="black"/>
<path d="M413.458 163H415V160.25V157.5V154.75V152V149.25V146.5V143.75V141H413.458H410.958H410V143.75V146.5V149.25V152V154.75V157.5V160.25V163H410.958H413.458Z" fill="black"/>
<path d="M118.15 141H117V143.833V146.667V149.5V152.333V155.167V158V160.833V163.667V166.5V169.333V172.167V175H118.15H121.15H123V169.333V166.5V163.667V160.833V158V155.167V152.333V146.667V143.833V141H121.15H118.15Z" fill="black"/>
<path d="M107.767 141H107V143.833V146.667V149.5V152.333V155.167V158V160.833V163.667V166.5V169.333V172.167V175H107.767H109.767H111V172.167V169.333V166.5V163.667V160.833V158V155.167V152.333V149.5V146.667V143.833V141H109.767H107.767Z" fill="black"/>
<path d="M96.15 141H95V143.833V146.667V149.5V152.333V155.167V158V160.833V163.667V166.5V169.333V172.167V175H96.15H99.15H101V169.333V166.5V163.667V160.833V158V155.167V152.333V146.667V143.833V141H99.15H96.15Z" fill="black"/>
<path d="M84.15 141H83V143.75V146.5V149.25V152V154.75V157.5V160.25V163H84.15H87.15H89V157.5V154.75V152V149.25V146.5V143.75V141H87.15H84.15Z" fill="black"/>
<path d="M73.9583 141H73V143.75V146.5V149.25V152V154.75V157.5V160.25V163H73.9583H76.4583H78V160.25V157.5V154.75V152V146.5V143.75V141H76.4583H73.9583Z" fill="black"/>
<path d="M62.15 141H61V143.75V146.5V149.25V152V154.75V157.5V160.25V163H62.15H65.15H67V157.5V154.75V152V149.25V146.5V143.75V141H65.15H62.15Z" fill="black"/>
<path d="M50.9583 141H50V143.75V146.5V149.25V152V154.75V157.5V160.25V163H50.9583H53.4583H55V157.5V154.75V152V146.5V143.75V141H53.4583H50.9583Z" fill="black"/>
<path d="M39.15 141H38V144V147V150V153H39.15H42.15H44V150V147V144V141H42.15H39.15Z" fill="black"/>
<path d="M28.9583 141H28V144V147V150V153H28.9583H31.4583H33V147V144V141H31.4583H28.9583Z" fill="black"/>
<path d="M17.15 141H16V144V147V150V153H17.15H20.15H22V150V147V144V141H20.15H17.15Z" fill="black"/>
<path d="M307.15 191H309V188.2V185.4V182.6V179.8V177V174.2V171.4V168.6V165.8V163V160.2V157.4V154.6V151.8V149V146.2V143.4V140.6V138.134V137.8V135H307.15H304.15H303V137.8V138.134V140.6V143.4V146.2V149V151.8V154.6V157.4V160.2V163V165.8V168.6V171.4V174.2V177V179.8V182.6V185.4V188.2V191H304.15H307.15Z" fill="black"/>
<path d="M292 138.134V140.6V143.4V146.2V149V151.8V154.6V157.4V160.2V163V165.8V168.6V171.4V174.2V177V179.8V182.6V185.4V188.2V191H292.958H295.458H297V188.2V185.4V182.6V179.8V177V174.2V171.4V168.6V165.8V163V160.2V157.4V154.6V151.8V149V146.2V143.4V140.6V138.134V137.8V135H295.458H292.958H292V137.8V138.134Z" fill="black"/>
<path d="M280 138.134V140.6V143.4V146.2V149V151.8V154.6V157.4V160.2V163V165.8V168.6V171.4V174.2V177V179.8V182.6V185.4V188.2V191H281.15H284.15H286V188.2V185.4V182.6V179.8V177V174.2V171.4V168.6V165.8V163V160.2V157.4V154.6V151.8V149V146.2V143.4V140.6V138.134V137.8V135H284.15H281.15H280V137.8V138.134Z" fill="black"/>
<path d="M267.804 151.8H269.5V154.6V157.4V160.2V163V165.8V168.6V171.4V174.2V177V179.8V182.6V185.4V188.2V191H270.554H273.304H275V188.2V185.4V182.6V179.8V177V174.2V171.4V168.6V165.8V163V160.2V157.4V154.6V151.8V149V146.2V143.4V140.6V138.134V137.8V135H273.304H270.554H269.5V132.2V129.4V126.6V124.819V123.8V121V118.2V115.4V112.6V109.8V107H267.804H265.054H264V109.8V112.6V115.4V118.2V121V123.8V124.819V126.6V129.4V132.2V135V137.8V138.134V140.6V143.4V146.2V149V151.8H265.054H267.804Z" fill="black"/>
<path d="M117 138.578V138.25V135.5V132.75V130V127.25V125.501V124.5H115.458H112.958H112V121.75V119H110.458H107.958H107V121.75V124.5V125.501V127.25V130H107.958H110.458H112V132.75V135.5V138.25V138.578V141H112.958H115.458H117V138.578Z" fill="black"/>
<path d="M107 138.578V138.25V135.5V132.75V130H105.15H102.15H101V132.75V135.5V138.25V138.578V141H102.15H105.15H107V138.578Z" fill="black"/>
<path d="M95 138.578V138.25V135.5V132.75V130H93.15H90.15H89V132.75V135.5V138.578V141H90.15H93.15H95V138.578Z" fill="black"/>
<path d="M83 138.578V138.25V135.5V132.75V130H81.4583H78.9583H78V132.75V135.5V138.25V138.578V141H78.9583H81.4583H83V138.578Z" fill="black"/>
<path d="M73 138.578V138.25V135.5V132.75V130H71.15H68.15H67V132.75V135.5V138.578V141H68.15H71.15H73V138.578Z" fill="black"/>
<path d="M61 138.578V138.25V135.5V132.75V130H59.15H56.15H55V132.75V135.5V138.578V141H56.15H59.15H61V138.578Z" fill="black"/>
<path d="M50 138.578V138.25V135.5V132.75V130H48.15H45.15H44V132.75V135.5V138.578V141H45.15H48.15H50V138.578Z" fill="black"/>
<path d="M38 138.578V138.25V135.5V132.75V130H36.4583H33.9583H33V132.75V135.5V138.578V141H33.9583H36.4583H38V138.578Z" fill="black"/>
<path d="M290.15 135H292V132.25V129.5V126.75V125.001V124V121.25V118.5V115.75V113H290.15H287.15H286V115.75V118.5V121.25V124V125.001V126.75V129.5V132.25V135H287.15H290.15Z" fill="black"/>
<path d="M278.458 135H280V132.25V129.5V126.75V125.001V124V121.25V118.5V115.75V113H278.458H275.958H275V115.75V118.5V121.25V124V125.001V126.75V129.5V132.25V135H275.958H278.458Z" fill="black"/>
<path d="M242 126.75V129.5V132.25V135H242.767H244.767H246V132.25V129.5V126.75V125.001V124H244.767H242.767H242V125.001V126.75Z" fill="black"/>
<path d="M224 124.333V125.304V127V129.667H225.15H228.15H230V132.333V135H231.15H234.15H236V132.333V129.667V127V125.304V124.333H234.15H231.15H230V121.667V119H228.15H225.15H224V121.667V124.333Z" fill="black"/>
<path d="M213 124.5V125.501V127.25V130H213.958H216.458H218V127.25V125.501V124.5V121.75V119H216.458H213.958H213V121.75V124.5Z" fill="black"/>
<path d="M101 125.501V124.5V121.75V119H99.15H96.15H95V121.75V124.5V125.501V127.25V130H96.15H99.15H101V125.501Z" fill="black"/>
<path d="M89 125.501V124.5V121.75V119H87.15H84.15H83V121.75V124.5V125.501V127.25V130H84.15H87.15H89V127.25V125.501Z" fill="black"/>
<path d="M78 125.501V124.5V121.75V119H76.4583H73.9583H73V121.75V124.5V125.501V127.25V130H73.9583H76.4583H78V125.501Z" fill="black"/>
<path d="M67 125.501V124.5V121.75V119H65.15H62.15H61V121.75V124.5V125.501V127.25V130H62.15H65.15H67V127.25V125.501Z" fill="black"/>
<path d="M55 124.5V121.75V119H53.4583H50.9583H50V121.75V124.5V125.501V127.25V130H50.9583H53.4583H55V125.501V124.5Z" fill="black"/>
<path d="M38 124.5V125.501V127.25V130H39.15H42.15H44V127.25V125.501V124.5V121.75V119H42.15H39.15H38V121.75V124.5Z" fill="black"/>
<path d="M247.038 118.347V123.937H252.692V129.528V135.11H247.038V140.693H241.385V135.11H235.731V140.693H230.077V135.11H224.423V129.528H218.769V140.701V146.284H213.115V140.701V129.535H207.462V135.118H201.808V129.535H196.154V123.945H190.5V118.362H184.846V129.543H190.5V135.126V140.709H184.846V135.126H179.192V129.543V118.362H173.538V123.945H167.885V118.362H162.231V112.779H156.577V107.197H150.923V112.779H145.269V107.197H139.615V118.37V123.953H133.962V118.37V107.173H128.308V101.591H122.654V96H117V107.173H122.654V112.756H128.308V118.339V123.922H122.654V129.512V135.095V140.685H128.308V135.103V129.52H133.962V135.103V140.685H139.615V146.268H133.962V140.685H128.308V151.859H133.962V157.449H139.615V163.032H145.269V157.449H150.923V163.032H156.577V157.449H162.231V163.032H167.885V168.615H173.538V157.488V151.897H179.192V157.488V168.661H184.846V157.488V151.897H190.5V157.488V168.661H196.154V157.488V151.897H201.808V157.488V168.661H207.462V174.244H213.115V163.078H207.462V157.496V151.905H213.115V157.496H218.769V163.078V174.252H224.423V163.078V151.897V146.315H230.077V151.897V163.071V174.244H235.731V163.078V151.897V146.315H241.385V151.897V163.071V174.244H247.038V179.827V191H252.692V179.85V168.669H247.038V163.086V151.897V146.315H252.692V151.897V163.071H258.346V168.653V179.827V191H264V179.85V168.669V157.488H258.346V151.897V140.716V129.535V118.354H252.692V112.772H247.038V118.354V118.347ZM150.923 137.913V140.709V146.291H145.269V135.126H139.615V129.543H145.269V135.126H150.923V137.913ZM173.538 137.913V140.709V146.291H167.885V140.709V135.126H162.231V140.709V146.291H156.577V140.709V135.126H162.231V129.543H167.885V135.126H173.538V137.913Z" fill="black"/>
<path d="M433.15 107H432V109.833V112.667V115.5V118.333H433.15H436.15H438V121.167V124H439.15H442.15H444V121.167V118.333V115.5V112.667H442.15H439.15H438V109.833V107H436.15H433.15Z" fill="black"/>
<path d="M298.15 107H297V109.875V112.75V113.477V115.625V118.5V121.375V124.25V125.296V127.125V130H298.15H301.15H303V127.125V125.296V124.25V121.375V118.54V118.5V115.625V112.75V109.875V107H301.15H298.15Z" fill="black"/>
<path d="M234.15 118.4H236V121.2V124H237.15H240.15H242V121.2V118.4V115.6V112.8H240.15H237.15H236V110V107.2V104.4V101.6V98.8V96H234.15H231.15H230V98.8V101.6V104.4V107.2V110V112.8V115.6V118.4H231.15H234.15Z" fill="black"/>
<path d="M222.15 119H224V116.125V113.25V110.375V107.5V104.625V101.75V98.875V96H222.15H219.15H218V98.875V101.75V104.625V107.5V110.375V113.25V116.125V119H219.15H222.15Z" fill="black"/>
<path d="M190 112.75V115.625V118.5H191.15H194.15H196V121.375V124.25H197.15H200.15H202V125.296V127.125V130H203.15H206.15H208V127.125V125.296V124.25V121.375V118.5H206.15H203.15H202V115.625V112.75H200.15H197.15H196V109.875V107H194.15H191.15H190V109.875V112.75Z" fill="black"/>
<path d="M179 113V116V119H180.15H183.15H185V116V113V110V107H183.15H180.15H179V110V113Z" fill="black"/>
<path d="M112.15 107H111V109.833V112.667V115.5V118.333H112.15H115.15H117V121.167V124H118.15H121.15H123V121.167V115.5V112.667H121.15H118.15H117V109.833V107H115.15H112.15Z" fill="black"/>
<path d="M107 116V113V110V107H105.15H102.15H101V110V113V116V119H102.15H105.15H107V116Z" fill="black"/>
<path d="M89 113V119H90.15H93.15H95V116V113V110V107H93.15H90.15H89V110V113Z" fill="black"/>
<path d="M78 113V116V119H78.9583H81.4583H83V116V113V110V107H81.4583H78.9583H78V110V113Z" fill="black"/>
<path d="M73 116V113V110V107H71.15H68.15H67V110V113V119H68.15H71.15H73V116Z" fill="black"/>
<path d="M55 113V119H56.15H59.15H61V116V113V110V107H59.15H56.15H55V110V113Z" fill="black"/>
<path d="M44 113V119H45.15H48.15H50V116V113V110V107H48.15H45.15H44V110V113Z" fill="black"/>
<path d="M256.15 113H258V110.25V107.5V104.75V102H256.15H253.15H252V104.75V107.5V110.25V113H253.15H256.15Z" fill="black"/>
<path d="M244.767 113H246V110.25V107.5V104.75V102H244.767H242.767H242V104.75V107.5V110.25V113H242.767H244.767Z" fill="black"/>
<path d="M430.458 107H432V104.25V101.5V98.75V96H430.458H427.958H427V98.75V101.5V104.25V107H427.958H430.458Z" fill="black"/>
<path d="M421 104.25V101.5V98.75V96H419.15H416.15H415V98.75V101.5V104.25V107H416.15H419.15H421V104.25Z" fill="black"/>
<path d="M410 104.25V101.5V98.75V96H408.15H405.15H404V98.75V101.5V104.25V107H405.15H408.15H410V104.25Z" fill="black"/>
<path d="M399 104.25V101.5V98.75V96H397.15H394.15H393V98.75V101.5V104.25V107H394.15H397.15H399V104.25Z" fill="black"/>
<path d="M387 104.25V101.5V98.75V96H385.15H382.15H381V98.75V101.5V104.25V107H382.15H385.15H387V104.25Z" fill="black"/>
<path d="M377 104.25V101.5V98.75V96H375.15H372.15H371V98.75V101.5V104.25V107H372.15H375.15H377V104.25Z" fill="black"/>
<path d="M365 104.25V101.5V98.75V96H363.15H360.15H359V98.75V101.5V104.25V107H360.15H363.15H365V104.25Z" fill="black"/>
<path d="M353 104.25V101.5V98.75V96H351.767H349.767H349V98.75V101.5V104.25V107H349.767H351.767H353V104.25Z" fill="black"/>
<path d="M343 104.25V101.5V98.75V96H341.15H338.15H337V98.75V101.5V104.25V107H338.15H341.15H343V104.25Z" fill="black"/>
<path d="M331 104.25V101.5V98.75V96H329.15H326.15H325V98.75V101.5V104.25V107H326.15H329.15H331V104.25Z" fill="black"/>
<path d="M320 104.25V101.5V98.75V96H318.15H315.15H314V98.75V101.5V104.25V107H315.15H318.15H320V104.25Z" fill="black"/>
<path d="M309 104.25V101.5V98.75V96H307.15H304.15H303V98.75V101.5V104.25V107H304.15H307.15H309V104.25Z" fill="black"/>
<path d="M297 104.25V101.5V98.75V96H295.458H292.958H292V98.75V101.5V104.25V107H292.958H295.458H297V104.25Z" fill="black"/>
<path d="M281.15 96H280V98.75V99.5444V101.5V104.25V107H281.15H284.15H286V104.25V103.952V101.5V98.75V96H284.15H281.15Z" fill="black"/>
<path d="M199.919 107.667H201.667V110.5V113.333H202.753H205.586H207.333V116.167V119H208.419H211.253H213V116.167V113.333V110.5V107.667H211.253H208.419H207.333V104.833V102H205.586H202.753H201.667V99.1667V96.3333V93.5V90.6667V87.8333V85H199.919H197.086H196V87.8333V90.6667V93.5V96.3333V99.1667V102V104.833V107.667H197.086H199.919Z" fill="black"/>
<path d="M188.458 107H190V104.25V101.5V98.75V96V93.25V90.5V87.75V85H188.458H185.958H185V87.75V90.5V93.25V96V98.75V101.5V104.25V107H185.958H188.458Z" fill="black"/>
<path d="M157 101.75V104.625V107.5H158.086H160.919H162.667V110.375V113.25H163.753H166.586H168.333V116.125V119H169.419H172.253H174V116.125V113.25V110.375V107.5H172.253H169.419H168.333V104.625V101.75H166.586H163.753H162.667V98.875V96H160.919H158.086H157V98.875V101.75Z" fill="black"/>
<path d="M145 101.5V104.25V107H146.15H149.15H151V104.25V101.5V98.75V96H149.15H146.15H145V98.75V101.5Z" fill="black"/>
<path d="M107 101.5V104.25V107H107.767H109.767H111V104.25V101.5V98.75V96H109.767H107.767H107V98.75V101.5Z" fill="black"/>
<path d="M95 101.5V104.25V107H96.15H99.15H101V101.5V98.75V96H99.15H96.15H95V98.75V101.5Z" fill="black"/>
<path d="M83 101.5V104.25V107H84.15H87.15H89V104.25V101.5V98.75V96H87.15H84.15H83V98.75V101.5Z" fill="black"/>
<path d="M73 101.5V104.25V107H73.9583H76.4583H78V101.5V98.75V96H76.4583H73.9583H73V98.75V101.5Z" fill="black"/>
<path d="M61 101.5V104.25V107H62.15H65.15H67V104.25V101.5V98.75V96H65.15H62.15H61V98.75V101.5Z" fill="black"/>
<path d="M50 101.5V104.25V107H50.9583H53.4583H55V101.5V98.75V96H53.4583H50.9583H50V98.75V101.5Z" fill="black"/>
<path d="M211.458 102H213V99V96V93V90H211.458H208.958H208V93V96V99V102H208.958H211.458Z" fill="black"/>
<path d="M432 90.5V93.25V96H433.15H436.15H438V93.25V90.5V87.75V85H436.15H433.15H432V87.75V90.5Z" fill="black"/>
<path d="M421 90.5V93.25V96H422.15H425.15H427V93.25V90.5V87.75V85H425.15H422.15H421V87.75V90.5Z" fill="black"/>
<path d="M410 90.5V93.25V96H410.958H413.458H415V93.25V90.5V87.75V85H413.458H410.958H410V87.75V90.5Z" fill="black"/>
<path d="M399 90.5V93.25V96H399.958H402.458H404V93.25V90.5V87.75V85H402.458H399.958H399V87.75V90.5Z" fill="black"/>
<path d="M387 90.5V93.25V96H388.15H391.15H393V93.25V90.5V87.75V85H391.15H388.15H387V87.75V90.5Z" fill="black"/>
<path d="M377 90.5V93.25V96H377.767H379.767H381V93.25V90.5V87.75V85H379.767H377.767H377V87.75V90.5Z" fill="black"/>
<path d="M365 90.5V93.25V96H366.15H369.15H371V93.25V90.5V87.75V85H369.15H366.15H365V87.75V90.5Z" fill="black"/>
<path d="M353 90.5V93.25V96H354.15H357.15H359V93.25V90.5V87.75V85H357.15H354.15H353V87.75V90.5Z" fill="black"/>
<path d="M343 90.5V93.25V96H344.15H347.15H349V93.25V90.5V87.75V85H347.15H344.15H343V87.75V90.5Z" fill="black"/>
<path d="M331 90.5V93.25V96H332.15H335.15H337V93.25V90.5V87.75V85H335.15H332.15H331V87.75V90.5Z" fill="black"/>
<path d="M320 90.5V93.25V96H320.958H323.458H325V93.25V90.5V87.75V85H323.458H320.958H320V87.75V90.5Z" fill="black"/>
<path d="M309 90.5V93.25V96H309.958H312.458H314V93.25V90.5V87.75V85H312.458H309.958H309V87.75V90.5Z" fill="black"/>
<path d="M297 90.5V93.25V96H298.15H301.15H303V93.25V90.5V87.75V85H301.15H298.15H297V87.75V90.5Z" fill="black"/>
<path d="M165.919 96H167.667V98.75V101.5H168.753H171.586H173.333V104.25V107H174.419H177.253H179V104.25V101.5V98.75V96H177.253H174.419H173.333V93.25V90.5H171.586H168.753H167.667V87.75V85V82.25V79.5V76.75V74H165.919H163.086H162V76.75V79.5V82.25V85V87.75V90.5V93.25V96H163.086H165.919Z" fill="black"/>
<path d="M155.15 96H157V93.25V90.5V87.75V85V82.25V79.5V76.75V74H155.15H152.15H151V76.75V79.5V82.25V85V87.75V90.5V93.25V96H152.15H155.15Z" fill="black"/>
<path d="M123 90.5V93.25V96H124.022H126.689H128.333V98.75V101.5H129.356H132.022H132.17H133.667V104.25V107H134.689H137.356H139V104.25V101.5V98.75V96H137.356H134.689H133.667V93.25V90.5H132.17H132.022H129.356H128.333V87.75V85H126.689H124.022H123V87.75V90.5Z" fill="black"/>
<path d="M111 90.5V93.25V96H112.15H115.15H117V93.25V90.5V87.75V85H115.15H112.15H111V87.75V90.5Z" fill="black"/>
<path d="M101 90.5V93.25V96H102.15H105.15H107V93.25V90.5V87.75V85H105.15H102.15H101V87.75V90.5Z" fill="black"/>
<path d="M89 90.5V96H90.15H93.15H95V93.25V90.5V87.75V85H93.15H90.15H89V87.75V90.5Z" fill="black"/>
<path d="M78 90.5V93.25V96H78.9583H81.4583H83V93.25V90.5V87.75V85H81.4583H78.9583H78V87.75V90.5Z" fill="black"/>
<path d="M67 90.5V96H68.15H71.15H73V93.25V90.5V87.75V85H71.15H68.15H67V87.75V90.5Z" fill="black"/>
<path d="M55 90.5V96H56.15H59.15H61V93.25V90.5V87.75V85H59.15H56.15H55V87.75V90.5Z" fill="black"/>
<path d="M177.458 90H179V87.25V84.5V81.75V79H177.458H174.958H174V81.75V84.5V87.25V90H174.958H177.458Z" fill="black"/>
<path d="M132.689 84.5H132.837H134.333V87.375V90.25H135.356H138.022H139.667V93.125V96H140.689H143.356H145V93.125V90.25V87.375V84.5H143.356H140.689H139.667V81.625V78.75H138.022H135.356H134.333V75.875V73V70.125V67.25V64.375V61.5V58.625V55.75V54.5681V52.875V50H132.837H132.689H130.022H129V52.875V54.5681V55.75V58.625V61.5V64.375V67.25V70.125V73V75.875V78.75V81.625V84.5H130.022H132.689Z" fill="black"/>
<path d="M121.15 85H123V79.1667V76.25V73.3333V70.4167V67.5V64.5833V61.6667V55.8333V54.6343V52.9167V50H121.15H118.15H117V52.9167V54.6343V55.8333V58.75V61.6667V64.5833V67.5V70.4167V73.3333V76.25V79.1667V82.0833V85H118.15H121.15Z" fill="black"/>
<path d="M109.767 85H111V82.0833V79.1667V76.25V73.3333V70.4167V67.5V64.5833V61.6667V58.75V55.8333V54.6343V52.9167V50H109.767H107.767H107V52.9167V54.6343V55.8333V58.75V61.6667V64.5833V67.5V70.4167V73.3333V76.25V79.1667V82.0833V85H107.767H109.767Z" fill="black"/>
<path d="M99.15 85H101V79.1667V76.25V73.3333V70.4167V67.5V64.5833V61.6667V55.8333V54.6343V52.9167V50H99.15H96.15H95V52.9167V54.6343V55.8333V58.75V61.6667V64.5833V67.5V70.4167V73.3333V76.25V79.1667V82.0833V85H96.15H99.15Z" fill="black"/>
<path d="M143.15 79H145V76.25V73.5V70.75V68H143.15H140.15H139V70.75V73.5V76.25V79H140.15H143.15Z" fill="black"/>
<path d="M174.958 40H174V42.0903V42.5V45V47.5V50H174.958H177.458H179V47.5V45V42.5V42.0903V40H177.458H174.958Z" fill="black"/>
<path d="M189.958 39.9889V33.9944H184.479V28H179V39.9972H184.479V46H189.958V44.5493L191 45.0912V42.4984H189.958V39.9889Z" fill="black"/>
<path d="M304.15 28H303V31V34V37V40H304.15H307.15H309V37V34V31V28H307.15H304.15Z" fill="black"/>
<path d="M292.958 28H292V31V34V37V40H292.958H295.458H297V37V34V31V28H295.458H292.958Z" fill="black"/>
<path d="M281.15 28H280V31V34V37V40H281.15H284.15H286V37V34V31V28H284.15H281.15Z" fill="black"/>
<path d="M270.958 28H270V31V34V37V40H270.958H273.458H275V37V34V31V28H273.458H270.958Z" fill="black"/>
<path d="M174 37V36.525V34V31V28H172.15H169.15H168V31V34V34.05V37V40H169.15H172.15H174V37Z" fill="black"/>
<path d="M157.554 28.6667H156.5V25.8333V23H154.804H152.054H151V25.8333V27.8639V28.6667V31.5V34.3333H152.054H154.804H156.5V37.1667V40H157.554H160.304H162V37.1667V34.3333V32.1296V31.5V28.6667H160.304H157.554Z" fill="black"/>
<path d="M140.15 18H139V20.75V23.5V24.4014V26.25V29V31.75V34.5V37.25V40H140.15H143.15H145V34.5V31.75V29V26.2729V26.25V23.5V20.75V18H143.15H140.15Z" fill="black"/>
<path d="M393 31.25V28.5V25.75V23H391.15H388.15H387V25.75V28.5V31.25V34H388.15H391.15H393V31.25Z" fill="black"/>
<path d="M381 31.25V28.5V25.75V23H379.767H377.767H377V25.75V28.5V31.25V34H377.767H379.767H381V31.25Z" fill="black"/>
<path d="M371 31.25V28.5V25.75V23H369.15H366.15H365V25.75V28.5V31.25V34H366.15H369.15H371V31.25Z" fill="black"/>
<path d="M359 31.25V28.5V25.75V23H357.15H354.15H353V25.75V28.5V31.25V34H354.15H357.15H359V31.25Z" fill="black"/>
<path d="M349 31.25V28.5V25.75V23H347.15H344.15H343V25.75V28.5V31.25V34H344.15H347.15H349V31.25Z" fill="black"/>
<path d="M337 31.25V28.5V25.75V23H335.15H332.15H331V25.75V28.5V31.25V34H332.15H335.15H337V31.25Z" fill="black"/>
<path d="M323.458 34H325V31.25V28.5V25.75V23H323.458H320.958H320V25.75V28.5V31.25V34H320.958H323.458Z" fill="black"/>
<path d="M303 25.25V22.5V19.75V17V14.25V11.5V8.75V6H301.15H298.15H297V8.75V11.5V14.25V17V19.75V22.5V25.25V28H298.15H301.15H303V25.25Z" fill="black"/>
<path d="M292 25.25V22.5V19.75V17V14.25V11.5V8.75V6H290.15H287.15H286V8.75V11.5V14.25V17V19.75V22.5V25.25V28H287.15H290.15H292V25.25Z" fill="black"/>
<path d="M280 25.25V22.5V19.75V17V14.25V11.5V8.75V6H278.458H275.958H275V8.75V11.5V14.25V17V19.75V22.5V25.25V28H275.958H278.458H280V25.25Z" fill="black"/>
<path d="M270 25.25V22.5V19.75V17V14.25V11.5V8.75V6H268.15H265.15H264V8.75V11.5V14.25V17V19.75V22.5V25.25V28H265.15H268.15H270V25.25Z" fill="black"/>
<path d="M394.15 12H393V14.75V17.5V20.25V23H394.15H397.15H399V20.25V17.5V14.75V12H397.15H394.15Z" fill="black"/>
<path d="M381 17.5V20.25V23H382.15H385.15H387V20.25V17.5V14.75V12H385.15H382.15H381V14.75V17.5Z" fill="black"/>
<path d="M371 17.5V20.25V23H372.15H375.15H377V20.25V17.5V14.75V12H375.15H372.15H371V14.75V17.5Z" fill="black"/>
<path d="M359 17.5V20.25V23H360.15H363.15H365V20.25V17.5V14.75V12H363.15H360.15H359V14.75V17.5Z" fill="black"/>
<path d="M349 17.5V20.25V23H349.767H351.767H353V20.25V17.5V14.75V12H351.767H349.767H349V14.75V17.5Z" fill="black"/>
<path d="M337 17.5V20.25V23H338.15H341.15H343V20.25V17.5V14.75V12H341.15H338.15H337V14.75V17.5Z" fill="black"/>
<path d="M329.304 23H331V20.1667V17.3333V14.5V11.6667H329.304H326.554H325.5V8.83333V6H323.804H321.054H320V8.83333V11.6667V14.5V17.3333H321.054H323.804H325.5V20.1667V23H326.554H329.304Z" fill="black"/>
<path d="M309.958 6H309V8.75V11.5V14.25V17V19.75V22.5V25.25V28H309.958H312.458H314V25.25V22.5V19.75V17V14.25V11.5V8.75V6H312.458H309.958Z" fill="black"/>
<path d="M253.15 6H252V9V12V15V18H253.15H256.15H258V15V12V9V6H256.15H253.15Z" fill="black"/>
<path d="M112.958 6H112V3V0H110.458H107.958H107V3V6V9V12H107.958H110.458H112V15V16.0917V18H112.958H115.458H117V17.7V15V12V9V6H115.458H112.958Z" fill="black"/>
<path d="M96.15 0H95V3V6V9V11.725V12H96.15H96.2333H99.15H101V9V3V0H99.15H96.15Z" fill="black"/>
<path d="M1113.58 89.9378H1108.91V80.4595H1102.18V73.7782H1095.45V67.097H1088.73V60.4157H1082V53.7251H1075.27V47.0438H1068.54V40.3626H1061.82V33.6813H1055.09V27H1048.36V40.3719V53.7437H1055.09V47.0624H1061.82V53.7437H1068.54V60.4343H1075.27V67.1155H1082V73.7968H1088.73V80.4781H1095.45V87.1594H1102.18V89.9471H1088.73V80.4688H1082V73.7875H1075.27V67.1062H1068.54V60.425H1061.82V53.7344H1055.09V67.1062H1061.82V73.7875H1068.54V80.4688H1075.27V87.1501H1082V89.9378H1068.54V80.4595H1061.82V73.7782H1055.09V67.097H1048.36V80.4688H1055.09V87.1501H1061.82V89.9378H1048.36V80.4595H1041.63V89.9378H1034.91V80.4595H1028.18V89.9378H1021.45V80.4595H1014.72V89.9378H1008V80.4595H1001.27V89.9378H994.542V80.4595H987.815V89.9378H981.087V80.4595H974.36V89.9378H967.633V80.4595H960.905V89.9378H954.178V80.4595H947.45V89.9378H938.639V100.522H935.275V89.9378H911.729V100.522H908.366V89.9378H898.274V100.522H894.911V89.9378H884.82V100.522H881.456V89.9378H871.365V100.522H868.001V89.9378H857.91V100.522H854.546V89.9378H844.455V100.522H841.091V89.9378H831V105.837H839.811V113.903H846.539V105.837H847.819V103.867H851.182V105.837H853.266V113.903H859.993V120.584H866.721V127.275H873.448V120.584H880.176V127.275V133.956H886.903V140.637H893.631V133.956H900.358V140.637H907.086V147.319H913.813V154H920.54V140.675H913.813V133.993H907.086V127.312H900.358V120.621H907.086V127.312H913.813V133.993H920.54V140.675H927.268V133.993H933.995V140.675H940.723V133.993H947.45V140.675H954.178V133.993H960.905V140.675H967.633V133.993H974.36V140.675H981.087V133.993H987.815V140.675H994.542V133.993H1001.27V140.675H1008V133.993H1014.72V140.675H1021.45V133.993H1028.18V140.675H1034.91V133.993H1041.63V140.675H1048.36V133.993H1055.09V140.675H1061.82V133.993H1068.54V140.675H1075.27V133.993H1082V140.675H1088.73V133.993H1095.45V140.675H1102.18V133.993H1108.91V140.675H1115.64V147.356H1119V107.212H1115.64V105.837H1119V89.9378H1113.55H1113.58ZM837.755 93.8407V100.522H834.392V90.4861H837.755V93.8407ZM861.302 97.1766V90.4861H864.665V100.522H861.302V97.1766ZM866.749 107.212H860.021V105.837H866.749V107.212ZM880.204 107.212H873.476V105.837H874.756V103.867H878.12V105.837H880.204V107.212ZM893.659 123.939V127.293H886.931V120.603H893.659V123.939ZM893.659 107.212H886.931V105.837H893.659V107.212ZM907.114 107.212H900.386V105.837H907.114V107.212ZM920.568 107.212H913.841V105.837H920.568V107.212ZM925.24 100.522H921.877V97.1766H925.24V100.522ZM934.051 107.212H927.324V105.837H934.051V107.212ZM947.506 107.212H940.779V105.837H947.506V107.212ZM952.178 100.522H948.814V97.1766H952.178V100.522ZM960.989 107.212H954.262V105.837H960.989V107.212ZM974.444 107.212H967.717V105.837H974.444V107.212ZM987.899 107.212H981.171V105.837H987.899V107.212ZM1001.35 107.212H994.626V105.837H1001.35V107.212ZM1014.81 107.212H1008.08V105.837H1014.81V107.212ZM1028.26 107.212H1021.54V105.837H1028.26V107.212ZM1041.72 107.212H1034.99V105.837H1041.72V107.212ZM1055.17 107.212H1048.45V105.837H1055.17V107.212ZM1068.63 107.212H1061.9V105.837H1068.63V107.212ZM1082.08 107.212H1075.36V105.837H1082.08V107.212ZM1095.54 107.212H1088.81V105.837H1095.54V107.212ZM1108.99 107.212H1102.27V105.837H1108.99V107.212Z" fill="white"/>
<path d="M1598.57 312.6H1591.37V305.4H1584.17V319.8H1576.97V305.4H1569.77V319.8H1562.57V305.4H1569.77V283.8H1562.57V298.2H1555.37V312.6H1548.17V298.2H1555.37V291H1548.17V283.8H1540.97V259.02H1538.97C1538.89 258.93 1538.8 258.85 1538.71 258.76C1537.53 257.56 1536.31 256.38 1535.11 255.18L1534.92 254.99C1533.79 253.86 1532.66 252.73 1531.51 251.6C1530.36 250.47 1529.12 249.28 1527.91 248.12C1527.8 248.01 1527.69 247.9 1527.57 247.8C1527.23 247.46 1526.88 247.14 1526.57 246.8V247.8H1519.37V219H1512.17V247.8H1504.97V219H1497.77V204.6H1490.57V219H1483.37V204.6H1490.57V197.4H1483.37V190.2H1476.17V183H1468.97V190.2H1461.77V183H1454.57V168.6H1447.37V175.8H1440.17V168.6H1432.97V161.4H1425.77V152.71H1423.54V150.59H1419.94V152.71H1418.57V161.4H1411.37V152.71H1401.94V135.6H1412.74V147H1416.34V135.6H1427.14V147H1430.74V135.6H1441.54V147H1445.14V135.6H1455.94V147H1459.54V135.6H1470.34V147H1473.94V135.6H1484.74V147H1488.34V135.6H1513.54V147H1517.14V135.6H1526.57V125.4H1533.77V111H1540.97V103.8H1533.77V89.4H1526.57V118.2H1519.37V132.6H1512.17V118.2H1504.97V132.6H1497.77V118.2H1490.57V132.6H1483.37V118.2H1476.17V132.6H1468.97V118.2H1461.77V89.4H1454.57V103.8H1447.37V89.4H1440.17V60.6H1432.97V75H1425.77V60.6H1418.57V53H1296.17V60.6H1288.97V67.8H1296.17V82.2H1288.97V89.4H1296.17V103.8H1288.97V96.6H1281.77V89.4H1274.57V103.8H1267.37V96.6H1260.17V82.2H1252.97V96.6H1245.77V82.2H1238.57V96.6H1231.37V89.4H1224.17V75H1216.97V89.4H1209.77V75H1202.57V89.4H1195.37V75H1188.17V103.8H1180.97V75H1188.17V60.6H1195.37V53H1118V147H1123.37V75H1130.57V147H1137.77V75H1144.97V147H1152.17V75H1159.37V147H1166.57V139.8H1173.77V147H1180.97V154.2H1188.17V147H1195.37V154.2H1202.57V147H1209.77V154.2H1216.97V147H1224.17V154.2H1231.37V147H1238.57V190.2H1245.77V147H1252.97V190.2H1260.17V147H1267.37V190.2H1274.57V147H1281.77V190.2H1288.97V147H1296.17V183H1303.37V168.6H1310.57V183H1303.37V190.2H1310.57V204.6H1317.77V175.8H1324.97V204.6H1332.17V175.8H1339.37V197.4H1346.57V183H1353.77V197.4H1346.57V204.6H1353.77V219H1360.97V190.2H1368.17V219H1375.37V190.2H1382.57V211.8H1389.77V197.4H1396.97V211.8H1389.77V219H1396.97V233.4H1404.17V204.6H1411.37V233.4H1418.57V204.6H1425.77V226.2H1432.97V211.8H1440.17V226.2H1447.37V211.8H1454.57V226.2H1447.37V233.4H1454.57V283.8H1461.77V327H1454.57V291H1447.37V269.4H1440.17V298.2H1447.37V327H1440.17V305.4H1432.97V334.2H1425.77V305.4H1418.57V334.2H1411.37V305.4H1404.17V334.2H1396.97V305.4H1389.77V334.2H1382.57V312.6H1375.37V340.2H1605.77V319.8H1598.57V312.6ZM1173.77 132.6H1166.57V75H1173.77V132.6ZM1310.57 132.6H1303.37V103.8H1310.57V132.6ZM1332.17 132.6H1324.97V125.4H1317.77V111H1324.97V118.2H1332.17V132.6ZM1369.54 138.71L1368.17 138.06V139.8H1360.97V132.6H1353.77V147H1346.57V132.6H1339.37V118.2H1346.57V132.6H1353.77V118.2H1360.97V125.4H1368.17V135.6H1369.54V138.71ZM1383.94 145.76C1382.74 145.15 1381.55 144.53 1380.34 143.93V136.19H1376.74V142.19L1373.14 140.44V135.62H1383.94V145.76ZM1391.14 149.46C1389.95 148.83 1388.75 148.2 1387.54 147.58V135.58H1391.14V149.46ZM1398.34 152.71H1397.34L1394.78 151.36V135.6H1398.38L1398.34 152.71ZM1504.97 327H1497.77V255H1490.57V327H1483.37V255H1476.17V327H1468.97V276.6H1461.77V219H1468.97V255H1476.17V226.2H1483.37V255H1490.57V226.2H1497.77V255H1504.97V327ZM1519.37 327H1512.17V255H1519.37V327ZM1540.97 305.4H1533.77V319.8H1526.57V305.4H1533.77V298.2H1526.57V255H1533.77V291H1540.97V305.4Z" fill="white"/>
<path d="M790.2 122.59L797.4 122.59L797.4 115L790.2 115L790.2 122.59Z" fill="black"/>
<path d="M775.8 122.59L783 122.59L783 115L775.8 115L775.8 122.59Z" fill="black"/>
<path d="M761.4 122.59L768.6 122.59L768.6 115L761.4 115L761.4 122.59Z" fill="black"/>
<path d="M747 122.59L754.2 122.59L754.2 115L747 115L747 122.59Z" fill="black"/>
<path d="M732.6 122.59L739.8 122.59L739.8 115L732.6 115L732.6 122.59Z" fill="black"/>
<path d="M718.2 122.59L725.4 122.59L725.4 115L718.2 115L718.2 122.59Z" fill="black"/>
<path d="M703.8 122.59L711 122.59L711 115L703.8 115L703.8 122.59Z" fill="black"/>
<path d="M788.82 115L790.2 115L790.2 111.4L790.2 107.8L790.2 104.2L790.2 100.6L788.82 100.6L785.22 100.6L783 100.6L783 104.2L783 107.8L783 111.4L783 115L785.22 115L788.82 115Z" fill="black"/>
<path d="M747 107.8L747 104.2L747 100.6L747 96.9998L747 93.3998L747 89.7998L747 86.1998L745.62 86.1998L742.02 86.1998L739.8 86.1998L739.8 89.7998L739.8 93.3998L739.8 96.9998L739.8 100.6L739.8 104.2L739.8 107.8L739.8 111.4L739.8 115L742.02 115L745.62 115L747 115L747 111.4L747 107.8Z" fill="black"/>
<path d="M732.6 107.8L732.6 104.2L732.6 100.6L732.6 96.9998L732.6 93.3998L732.6 89.7998L732.6 86.1998L731.22 86.1998L727.62 86.1998L725.4 86.1998L725.4 89.7998L725.4 93.3998L725.4 96.9998L725.4 100.6L725.4 104.2L725.4 107.8L725.4 111.4L725.4 115L727.62 115L731.22 115L732.6 115L732.6 111.4L732.6 107.8Z" fill="black"/>
<path d="M703.8 107.8L703.8 104.2L703.8 100.6L703.8 96.9998L703.8 93.3998L703.8 89.7998L703.8 86.1998L702.42 86.1998L698.82 86.1998L696.6 86.1998L696.6 89.7998L696.6 93.3998L696.6 96.9998L696.6 100.6L696.6 104.2L696.6 107.8L696.6 111.4L696.6 115L698.82 115L702.42 115L703.8 115L703.8 111.4L703.8 107.8Z" fill="black"/>
<path d="M675 107.8L675 104.2L675 100.6L675 96.9998L675 93.3998L675 89.7998L675 86.1998L673.62 86.1998L670.02 86.1998L667.8 86.1998L667.8 82.5998L667.8 78.9998L666.42 78.9998L662.82 78.9998L660.6 78.9998L660.6 82.5998L660.6 86.1998L660.6 89.7998L660.6 93.3998L662.82 93.3998L666.42 93.3998L667.8 93.3998L667.8 96.9998L667.8 100.6L667.8 104.2L667.8 107.8L667.8 111.4L667.8 115L670.02 115L673.62 115L675 115L675 111.4L675 107.8Z" fill="black"/>
<path d="M660.6 107.8L660.6 104.2L660.6 100.6L659.22 100.6L655.62 100.6L653.4 100.6L653.4 96.9998L653.4 93.3998L653.4 89.7998L653.4 86.1998L653.4 82.5998L653.4 78.9998L652.02 78.9998L648.42 78.9998L646.2 78.9998L646.2 82.5998L646.2 86.1998L646.2 89.7998L646.2 93.3998L646.2 96.9998L646.2 100.6L646.2 104.2L646.2 107.8L648.42 107.8L652.02 107.8L653.4 107.8L653.4 111.4L653.4 115L655.62 115L659.22 115L660.6 115L660.6 111.4L660.6 107.8Z" fill="black"/>
<path d="M639 100.6L639 96.9998L639 93.3998L639 89.7998L639 86.1998L639 82.5998L639 78.9998L637.62 78.9998L634.02 78.9998L631.8 78.9998L631.8 82.5998L631.8 86.1998L631.8 89.7998L631.8 93.3998L631.8 96.9998L631.8 100.6L631.8 104.2L631.8 107.8L634.02 107.8L637.62 107.8L639 107.8L639 104.2L639 100.6Z" fill="black"/>
<path d="M624.6 100.6L624.6 96.9998L624.6 93.3998L624.6 89.7998L624.6 86.1998L624.6 82.5998L624.6 78.9998L623.22 78.9998L619.62 78.9998L617.4 78.9998L617.4 82.5998L617.4 86.1998L617.4 89.7998L617.4 93.3998L617.4 96.9998L617.4 100.6L617.4 104.2L617.4 107.8L619.62 107.8L623.22 107.8L624.6 107.8L624.6 104.2L624.6 100.6Z" fill="black"/>
<path d="M610.2 100.6L610.2 96.9998L610.2 93.3998L610.2 89.7998L610.2 86.1998L610.2 82.5998L610.2 78.9998L608.82 78.9998L605.22 78.9998L603 78.9998L603 82.5998L603 86.1998L603 89.7998L603 93.3998L603 96.9998L603 100.6L603 104.2L603 107.8L605.22 107.8L608.82 107.8L610.2 107.8L610.2 104.2L610.2 100.6Z" fill="black"/>
<path d="M595.8 100.6L595.8 96.9998L595.8 93.3998L595.8 89.7998L595.8 86.1998L595.8 82.5998L595.8 78.9998L594.42 78.9998L590.82 78.9998L588.6 78.9998L588.6 82.5998L588.6 86.1998L588.6 89.7998L588.6 93.3998L588.6 96.9998L588.6 100.6L588.6 104.2L588.6 107.8L590.82 107.8L594.42 107.8L595.8 107.8L595.8 104.2L595.8 100.6Z" fill="black"/>
<path d="M768.6 89.7998L768.6 93.3998L768.6 96.9998L768.6 100.6L768.6 104.2L768.6 107.8L768.6 111.4L768.6 115L770.82 115L774.42 115L775.8 115L775.8 111.4L775.8 107.8L775.8 104.2L775.8 100.6L775.8 96.9998L775.8 93.3998L775.8 89.7998L775.8 86.1998L774.42 86.1998L770.82 86.1998L768.6 86.1998L768.6 89.7998Z" fill="black"/>
<path d="M754.2 89.7998L754.2 93.3998L754.2 96.9998L754.2 100.6L754.2 104.2L754.2 107.8L754.2 111.4L754.2 115L756.42 115L760.02 115L761.4 115L761.4 111.4L761.4 107.8L761.4 104.2L761.4 100.6L761.4 96.9998L761.4 93.3998L761.4 89.7998L761.4 86.1998L760.02 86.1998L756.42 86.1998L754.2 86.1998L754.2 89.7998Z" fill="black"/>
<path d="M711 89.7998L711 93.3998L711 96.9998L711 100.6L711 104.2L711 107.8L711 111.4L711 115L713.22 115L716.82 115L718.2 115L718.2 111.4L718.2 107.8L718.2 104.2L718.2 100.6L718.2 96.9998L718.2 93.3998L718.2 89.7998L718.2 86.1998L716.82 86.1998L713.22 86.1998L711 86.1998L711 89.7998Z" fill="black"/>
<path d="M682.2 89.7998L682.2 93.3998L682.2 96.9998L682.2 100.6L682.2 104.2L682.2 107.8L682.2 111.4L682.2 115L684.42 115L688.02 115L689.4 115L689.4 111.4L689.4 107.8L689.4 104.2L689.4 100.6L689.4 96.9998L689.4 93.3998L689.4 89.7998L689.4 86.1998L688.02 86.1998L684.42 86.1998L682.2 86.1998L682.2 89.7998Z" fill="black"/>
<path d="M689.4 122.59L696.6 122.59L696.6 115L689.4 115L689.4 122.59Z" fill="black"/>
<path d="M675 122.59L682.2 122.59L682.2 115L675 115L675 122.59Z" fill="black"/>
<path d="M610.2 122.59L617.4 122.59L617.4 107.8L610.2 107.8L610.2 122.59Z" fill="black"/>
<path d="M624.6 122.59L631.8 122.59L631.8 107.8L624.6 107.8L624.6 122.59Z" fill="black"/>
<path d="M595.8 122.59L603 122.59L603 107.8L595.8 107.8L595.8 122.59Z" fill="black"/>
<path d="M646.2 122.59L653.4 122.59L653.4 115L646.2 115L646.2 107.8L639 107.8L639 122.2L646.2 122.2L646.2 122.59Z" fill="black"/>
<path d="M660.6 122.59L667.8 122.59L667.8 115L660.6 115L660.6 122.59Z" fill="black"/>
<path d="M1317.6 86.78V93.98H1324.8V101.18V108.37H1317.6V115.56H1310.4V108.37H1303.2V115.56H1296V108.37H1288.8V101.18H1281.6V115.57V122.76H1274.4V115.57V101.19H1267.2V108.38H1260V101.19H1252.8V93.99H1245.6V86.8H1238.4V101.2H1245.6V108.39V115.58H1238.4V108.39H1231.2V101.2V86.8H1224V93.99H1216.8V86.8H1209.6V79.61H1202.4V72.42H1195.2V79.61H1188V72.42H1180.8V86.81V94H1173.6V86.81V72.39H1166.4V65.2H1159.2V58H1152V72.39H1159.2V79.58H1166.4V86.77V93.96H1159.2V101.16V108.35V115.55H1166.4V108.36V101.17H1173.6V108.36V115.55H1180.8V122.74H1173.6V115.55H1166.4V129.94H1173.6V137.14H1180.8V144.33H1188V137.14H1195.2V144.33H1202.4V137.14H1209.6V144.33H1216.8V151.52H1224V137.19V129.99H1231.2V137.19V151.58H1238.4V137.19V129.99H1245.6V137.19V151.58H1252.8V137.19V129.99H1260V137.19V151.58H1267.2V158.77H1274.4V144.39H1267.2V137.2V130H1274.4V137.2H1281.6V144.39V158.78H1288.8V144.39V129.99V122.8H1296V129.99V144.38V158.77H1303.2V144.39V129.99V122.8H1310.4V129.99V144.38V158.77H1317.6V165.96V180.35H1324.8V165.99V151.59H1317.6V144.4V129.99V122.8H1324.8V129.99V144.38H1332V151.57V165.96V180.35H1339.2V165.99V151.59V137.19H1332V129.99V115.59V101.19V86.79H1324.8V79.6H1317.6V86.79V86.78ZM1195.2 111.98V115.58V122.77H1188V108.39H1180.8V101.2H1188V108.39H1195.2V111.98ZM1224 111.98V115.58V122.77H1216.8V115.58V108.39H1209.6V115.58V122.77H1202.4V115.58V108.39H1209.6V101.2H1216.8V108.39H1224V111.98Z" fill="black"/>
<path d="M485.15 155H482.15H481V158V161H482.15H485.15H487V155H485.15Z" fill="white"/>
<path d="M523 155V152V149H521.15H518.15H517V152V155V158V161H518.15H521.15H523V155Z" fill="white"/>
<path d="M463 167H461.15H458.15H457V168.092V170V173H458.15H461.15H463V168.092V167Z" fill="white"/>
<path d="M457 161H454.842H451.342H450V164V167H451.342H454.842H457V161Z" fill="white"/>
<path d="M469 158V155H467.15H464.15H463V161H464.15H467.15H469V158Z" fill="white"/>
<path d="M475 164V161H473.15H470.15H469V164V167H470.15H473.15H475V164Z" fill="white"/>
<path d="M481 170V168.092V167H479.15H476.15H475V168.092V173H476.15H479.15H481V170Z" fill="white"/>
<path d="M530.15 149H529V152V155V158V161H530.15H533.15H535V158V155V152V149H533.15H530.15Z" fill="white"/>
<path d="M450 161V155H448.346H446V161H448.346H450Z" fill="white"/>
<path d="M541 170V168.092V167V164V161H539.15H536.15H535V164V167V168.092V173H536.15H539.15H541V170Z" fill="white"/>
<path d="M529 170V168.092V167V164V161H527.15H524.15H523V164V167V168.092V170V173H524.15H527.15H529V170Z" fill="white"/>
<path d="M497.15 161H499V155V152V149H497.15H494.15H493V152V155V158V161H494.15H497.15Z" fill="white"/>
<path d="M499 155V161H500.15H503.15H505V158V155V152V149H503.15H500.15H499V152V155Z" fill="white"/>
<path d="M511 155V161H512.15H515.15H517V158V155V152V149H515.15H512.15H511V152V155Z" fill="white"/>
<path d="M535 155V158V161H536.15H539.15H541V158V155V152V149H539.15H536.15H535V152V155Z" fill="white"/>
<path d="M493 167V168.092V170V173H494.15H497.15H499V170V168.092V167V164V161H497.15H494.15H493V164V167Z" fill="white"/>
<path d="M511 167V164V161H509.15H506.15H505V164V167V168.092V170V173H506.15H509.15H511V168.092V167Z" fill="white"/>
<path d="M523 168.092V167V164V161H521.15H518.15H517V164V167V168.092V170V173H518.15H521.15H523V170V168.092Z" fill="white"/>
<path d="M450.498 101V104V107V113V116V119V125H451.654H454.67H456.53V128V131H457.686H460.701H462.561V137H463.717H466.733H468.592V140V143H469.748H472.764H474.624V146V149H475.78H478.795H480.655V152V155H481.811H484.827H486.686V161H487.842H490.858H492.718V158V155V152V149H490.858H487.842H486.686V143H484.827H481.811H480.655V140V137H478.795H475.78H474.624V131H472.764H469.748H468.592V128V125H466.733H463.717H462.561V119H460.701H457.686H456.53V113V110V107V104V101H457.686H460.701H462.561V104V107V113V116V119H463.717H466.733H468.592V122V125H469.748H472.764H474.624V128V131H475.78H478.795H480.655V134V137H481.811H484.827H486.686V140V143H487.842H490.858H492.718V146V149H493.874H496.89H498.749V146V143V140V137H496.89H493.874H492.718V134V131H490.858H487.842H486.686V128V125H484.827H481.811H480.655V122V119H478.795H475.78H474.624V116V113H472.764H469.748H468.592V110V107V104V101H469.748H472.764H474.624V104V107V113H475.78H478.795H480.655V116V119H481.811H484.827H486.686V125H487.842H490.858H492.718V128V131H493.874H496.89H498.749V137H499.905H502.921H504.781V134V131V128V125H502.921H499.905H498.749V122V119H496.89H493.874H492.718V116V113H490.858H487.842H486.686V107H484.827H481.811H480.655V104V101H481.811H484.827H486.686V104V107H487.842H490.858H492.718V110V113H493.874H496.89H498.749V116V119H499.905H502.921H504.781V122V125H505.937H508.952H510.812V119H511.968H514.984H516.843V122V125H517.999H521.015H522.875V122V119V116V113V107H524.031H527.046H528.906V110V113V116V119V122V125H530.062H533.078H534.937V119V116V113V110V107H536.093H539.109H540.969V110V113V116V119V122V125H542.125H545.14H547V122V119V116V113V107V104V101V98V95V93.7667V92V89H545.14H542.125H540.969V92V93.7667V95H539.109H536.093H534.937V93.7667V92V89H533.078H530.062H528.906V92V93.7667V95H527.046H524.031H522.875V93.7667V92V89H521.015H517.999H516.843V92V93.7667V95H514.984H511.968H510.812V93.7667V92V89H508.952H505.937H504.781V92V93.7667V95H502.921H499.905H498.749V93.7667V92V89H496.89H493.874H492.718V86V83H490.858H487.842H486.686V89H484.827H481.811H480.655V92V93.7667V95H478.795H475.78H474.624V93.7667V92V89H472.764H469.748H468.592V92V93.7667V95H466.733H463.717H462.561V93.7667V92V89H460.701H457.686H456.53V92V93.7667V95H454.67H451.654H450.498V93.7667V92V89H448.639H446V101H448.639H450.498Z" fill="white"/>
<path d="M450.533 137V140V143H451.698H454.737H456.611V146V149H457.776H460.815H462.689V152V155H463.854H466.893H468.767V158V161H469.931H472.97H474.844V164V167H476.009H479.048H480.922V168.092V170V173H482.087H485.126H487V168.092V167V164V161H485.126H482.087H480.922V158V155H479.048H476.009H474.844V152V149H472.97H469.931H468.767V146V143H466.893H463.854H462.689V140V137H460.815H457.776H456.611V134V131H454.737H451.698H450.533V128V125H448.659H446V137H448.659H450.533Z" fill="white"/>
<path d="M143.38 122H142V125.6V129.2V132.8V136.4H143.38H146.98H149.2V132.8V129.2V125.6V122H146.98H143.38Z" fill="white"/>
<path d="M215.38 122H214V125.6V129.2V132.8V136.4V140V143.6V147.2V150.8H215.38H218.98H221.2V147.2V143.6V140V136.4V132.8V129.2V125.6V122H218.98H215.38Z" fill="white"/>
<path d="M240.58 143.6H242.8V140V136.4V132.8V129.2H240.58H236.98H235.6V125.6V122H233.38H229.78H228.4V125.6V129.2V132.8V136.4H229.78H233.38H235.6V140V143.6H236.98H240.58Z" fill="white"/>
<path d="M250 136.4V140V143.6H251.38H254.98H257.2V140V136.4V132.8V129.2H254.98H251.38H250V132.8V136.4Z" fill="white"/>
<path d="M264.4 136.4V140V143.6H265.78H269.38H271.6V140V136.4V132.8V129.2H269.38H265.78H264.4V132.8V136.4Z" fill="white"/>
<path d="M278.8 136.4V140V143.6H280.18H283.78H286V140V136.4V132.8V129.2H283.78H280.18H278.8V132.8V136.4Z" fill="white"/>
<path d="M293.2 136.4V140V143.6H294.58H298.18H300.4V140V136.4V132.8V129.2H298.18H294.58H293.2V132.8V136.4Z" fill="white"/>
<path d="M307.6 136.4V140V143.6H308.98H312.58H314.8V140V136.4V132.8V129.2H312.58H308.98H307.6V132.8V136.4Z" fill="white"/>
<path d="M163.6 147.2V143.6V140V136.4V132.8V129.2V125.6V122H161.38H157.78H156.4V125.6V129.2V132.8V136.4V140V143.6V147.2V150.8H157.78H161.38H163.6V147.2Z" fill="white"/>
<path d="M178 147.2V143.6V140V136.4V132.8V129.2V125.6V122H175.78H172.18H170.8V125.6V129.2V132.8V136.4V140V143.6V147.2V150.8H172.18H175.78H178V147.2Z" fill="white"/>
<path d="M192.4 147.2V143.6V140V136.4V132.8V129.2V125.6V122H190.18H186.58H185.2V125.6V129.2V132.8V136.4V140V143.6V147.2V150.8H186.58H190.18H192.4V147.2Z" fill="white"/>
<path d="M206.8 147.2V143.6V140V136.4V132.8V129.2V125.6V122H204.58H200.98H199.6V125.6V129.2V132.8V136.4V140V143.6V147.2V150.8H200.98H204.58H206.8V147.2Z" fill="white"/>
<path d="M233.38 158H235.6V154.4V150.8V147.2V143.6H233.38H229.78H228.4V147.2V150.8V154.4V158H229.78H233.38Z" fill="white"/>
<path d="M250 154.4V150.8V147.2V143.6H247.78H244.18H242.8V147.2V150.8V154.4V158H244.18H247.78H250V154.4Z" fill="white"/>
<path d="M264.4 154.4V150.8V147.2V143.6H262.18H258.58H257.2V147.2V150.8V154.4V158H258.58H262.18H264.4V154.4Z" fill="white"/>
<path d="M278.8 154.4V150.8V147.2V143.6H276.58H272.98H271.6V147.2V150.8V154.4V158H272.98H276.58H278.8V154.4Z" fill="white"/>
<path d="M293.2 154.4V150.8V147.2V143.6H290.98H287.38H286V147.2V150.8V154.4V158H287.38H290.98H293.2V154.4Z" fill="white"/>
<path d="M307.6 154.4V150.8V147.2V143.6H305.38H301.78H300.4V147.2V150.8V154.4V158H301.78H305.38H307.6V154.4Z" fill="white"/>
<path d="M322 154.4V150.8V147.2V143.6H319.78H316.18H314.8V147.2V150.8V154.4V158H316.18H319.78H322V154.4Z" fill="white"/>
<path d="M164.98 150.8H163.6V154.4V158V161.6V165.2H164.98H168.58H170.8V161.6V158V154.4V150.8H168.58H164.98Z" fill="white"/>
<path d="M179.38 150.8H178V154.4V158V161.6V165.2H179.38H182.98H185.2V161.6V158V154.4V150.8H182.98H179.38Z" fill="white"/>
<path d="M193.78 150.8H192.4V154.4V158V161.6V165.2H193.78H197.38H199.6V161.6V158V154.4V150.8H197.38H193.78Z" fill="white"/>
<path d="M208.18 150.8H206.8V154.4V158V161.6V165.2H208.18H211.78H214V161.6V158V154.4V150.8H211.78H208.18Z" fill="white"/>
<path d="M903.38 70H902V73.6V77.2V80.8V84.07V84.4H903.38H903.48H906.98H909.2V80.8V73.6V70H906.98H903.38Z" fill="black"/>
<path d="M924.98 77.2H923.6V73.6V70H921.38H917.78H916.4V73.6V77.2V80.8V84.4H917.78H921.38H923.6V88V89.31V91.6H924.98H928.58H930.8V91.24V88V84.4V80.8V77.2H928.58H924.98Z" fill="black"/>
<path d="M960.98 91.6001H959.6V95.2001V98.8001V99.9801V102.4V106V109.6V113.2V116.8V120.4H960.98H964.58H966.8V113.2V109.6V106V102.43V102.4V98.8001V95.2001V91.6001H964.58H960.98Z" fill="black"/>
<path d="M982.58 106H981.2V102.4V98.8H978.98H975.38H974V102.4V104.98V106V109.6V113.2H975.38H978.98H981.2V116.8V120.4H982.58H986.18H988.4V116.8V113.2V110.4V109.6V106H986.18H982.58Z" fill="black"/>
<path d="M1002.8 116.8V116.23V113.2V109.6V106H1000.58H996.98H995.6V109.6V113.2V113.26V116.8V120.4H996.98H1000.58H1002.8V116.8Z" fill="black"/>
<path d="M1024.4 120.4V113.21H1017.2V106.02H1010V120.41H1017.2V127.61H1024.4V125.87L1025.77 126.52V123.41H1024.4V120.4Z" fill="black"/>
<path d="M1004.18 120.4H1002.8V123.41V124V127.6V131.2V134.8H1004.18H1007.78H1010V131.2V127.6V124V123.41V120.4H1007.78H1004.18Z" fill="black"/>
<path d="M326.38 158H325V161.6V165.2V168.8V172.07V172.4H326.38H326.48H329.98H332.2V168.8V161.6V158H329.98H326.38Z" fill="white"/>
<path d="M347.98 165.2H346.6V161.6V158H344.38H340.78H339.4V161.6V165.2V168.8V172.4H340.78H344.38H346.6V176V177.31V179.6H347.98H351.58H353.8V179.24V176V172.4V168.8V165.2H351.58H347.98Z" fill="white"/>
<path d="M383.98 179.6H382.6V183.2V186.8V187.98V190.4V194V197.6V201.2V204.8V208.4H383.98H387.58H389.8V201.2V197.6V194V190.43V190.4V186.8V183.2V179.6H387.58H383.98Z" fill="white"/>
<path d="M405.58 194H404.2V190.4V186.8H401.98H398.38H397V190.4V192.98V194V197.6V201.2H398.38H401.98H404.2V204.8V208.4H405.58H409.18H411.4V204.8V201.2V198.4V197.6V194H409.18H405.58Z" fill="white"/>
<path d="M425.8 204.8V204.23V201.2V197.6V194H423.58H419.98H418.6V197.6V201.2V201.26V204.8V208.4H419.98H423.58H425.8V204.8Z" fill="white"/>
<path d="M447.4 208.4V201.21H440.2V194.02H433V208.41H440.2V215.61H447.4V213.87L448.77 214.52V211.41H447.4V208.4Z" fill="white"/>
<path d="M427.18 208.4H425.8V211.41V212V215.6V219.2V222.8H427.18H430.78H433V219.2V215.6V212V211.41V208.4H430.78H427.18Z" fill="white"/>
<path d="M769.78 121.2H768.4V117.6V114H766.18H762.58H761.2V117.6V121.2V124.8V128.4H762.58H766.18H768.4V132V135.6V139.2V142.8V146.4V150H769.78H773.38H775.6V146.4V142.8V139.2V135.6V132V128.4V124.8V121.2H773.38H769.78Z" fill="white"/>
<path d="M784.18 121.2H782.8V124.8V128.4V132V135.6V139.2V142.8V146.4V150H784.18H787.78H790V146.4V142.8V139.2V135.6V132V128.4V124.8V121.2H787.78H784.18Z" fill="white"/>
<path d="M798.58 121.2H797.2V124.8V128.4V132V135.6V139.2V142.8V146.4V150H798.58H802.18H804.4V146.4V142.8V139.2V135.6V132V128.4V124.8V121.2H802.18H798.58Z" fill="white"/>
<path d="M812.98 121.2H811.6V124.8V128.4V132V135.6V139.2V142.8V146.4V150H812.98H816.58H818.8V146.4V142.8V139.2V135.6V132V128.4V124.8V121.2H816.58H812.98Z" fill="white"/>
<path d="M710.8 135.6V156H718V128.4H710.8V121.2H703.6V135.6H710.8Z" fill="white"/>
<path d="M732.4 128.4H725.2V156H732.4V128.4Z" fill="white"/>
<path d="M746.8 128.4H739.6V156H746.8V128.4Z" fill="white"/>
<path d="M761.2 128.4H754V156H761.2V128.4Z" fill="white"/>
<path d="M689.2 146.4V142.8V139.2V135.6H686.98H683.38H682V139.2V142.8V146.4V150H683.38H686.98H689.2V146.4Z" fill="white"/>
<path d="M697.78 135.6H696.4V139.2V142.8V146.4V150H697.78H701.38H703.6V146.4V142.8V139.2V135.6H701.38H697.78Z" fill="white"/>
<path d="M696.4 150H689.2V156H696.4V150Z" fill="white"/>
</svg>
