<svg width="484" height="613" viewBox="0 0 484 613" fill="none" xmlns="http://www.w3.org/2000/svg">
<g opacity="0.6" clip-path="url(#clip0_1_1789)">
<path d="M93.3726 197.3L60.5471 219.159V175.44L93.3726 153.581V197.3Z" stroke="white" stroke-miterlimit="10"/>
<path d="M126.198 175.44L93.3726 197.3V153.581L126.198 131.721V175.44Z" stroke="white" stroke-miterlimit="10"/>
<path d="M159.024 153.581L126.198 175.44V131.722L159.024 109.862V153.581Z" stroke="white" stroke-miterlimit="10"/>
<path d="M191.849 131.721L159.024 153.581V109.862L191.849 88.0026V131.721Z" stroke="white" stroke-miterlimit="10"/>
<path d="M224.675 109.862L191.849 131.721V88.0025L224.675 66.1431V109.862Z" stroke="white" stroke-miterlimit="10"/>
<path d="M257.5 88.0025L224.675 109.862V66.143L257.5 44.2836V88.0025Z" stroke="white" stroke-miterlimit="10"/>
<path d="M290.325 66.1431L257.5 88.0026V44.2837L290.325 22.4242V66.1431Z" stroke="white" stroke-miterlimit="10"/>
<path d="M323.151 44.2836L290.326 66.1431V22.4242L323.151 0.564697V44.2836Z" stroke="white" stroke-miterlimit="10"/>
<path d="M93.3726 241.019L60.5471 262.878V219.159L93.3726 197.3V241.019Z" stroke="white" stroke-miterlimit="10"/>
<path d="M126.198 219.159L93.3726 241.019V197.3L126.198 175.44V219.159Z" stroke="white" stroke-miterlimit="10"/>
<path d="M159.024 197.3L126.198 219.159V175.44L159.024 153.581V197.3Z" stroke="white" stroke-miterlimit="10"/>
<path d="M191.849 175.44L159.024 197.3V153.581L191.849 131.721V175.44Z" stroke="white" stroke-miterlimit="10"/>
<path d="M224.675 153.581L191.849 175.44V131.722L224.675 109.862V153.581Z" stroke="white" stroke-miterlimit="10"/>
<path d="M257.5 131.721L224.675 153.581V109.862L257.5 88.0026V131.721Z" stroke="white" stroke-miterlimit="10"/>
<path d="M290.325 109.862L257.5 131.721V88.0025L290.325 66.1431V109.862Z" stroke="white" stroke-miterlimit="10"/>
<path d="M323.151 88.0025L290.326 109.862V66.143L323.151 44.2836V88.0025Z" stroke="white" stroke-miterlimit="10"/>
<path d="M93.3726 284.738L60.5471 306.597V262.878L93.3726 241.019V284.738Z" stroke="white" stroke-miterlimit="10"/>
<path d="M126.198 262.878L93.3726 284.738V241.019L126.198 219.159V262.878Z" stroke="white" stroke-miterlimit="10"/>
<path d="M159.024 241.019L126.198 262.878V219.159L159.024 197.3V241.019Z" stroke="white" stroke-miterlimit="10"/>
<path d="M191.849 219.159L159.024 241.019V197.3L191.849 175.44V219.159Z" stroke="white" stroke-miterlimit="10"/>
<path d="M224.675 197.3L191.849 219.159V175.44L224.675 153.581V197.3Z" stroke="white" stroke-miterlimit="10"/>
<path d="M257.5 175.44L224.675 197.3V153.581L257.5 131.721V175.44Z" stroke="white" stroke-miterlimit="10"/>
<path d="M290.325 153.581L257.5 175.44V131.722L290.325 109.862V153.581Z" stroke="white" stroke-miterlimit="10"/>
<path d="M323.151 131.721L290.326 153.581V109.862L323.151 88.0026V131.721Z" stroke="white" stroke-miterlimit="10"/>
<path d="M93.3726 328.457L60.5471 350.316V306.597L93.3726 284.738V328.457Z" stroke="white" stroke-miterlimit="10"/>
<path d="M126.198 306.597L93.3726 328.457V284.738L126.198 262.878V306.597Z" stroke="white" stroke-miterlimit="10"/>
<path d="M159.024 284.738L126.198 306.597V262.878L159.024 241.019V284.738Z" stroke="white" stroke-miterlimit="10"/>
<path d="M191.849 262.878L159.024 284.738V241.019L191.849 219.159V262.878Z" stroke="white" stroke-miterlimit="10"/>
<path d="M224.675 241.019L191.849 262.878V219.159L224.675 197.3V241.019Z" stroke="white" stroke-miterlimit="10"/>
<path d="M257.5 219.159L224.675 241.019V197.3L257.5 175.44V219.159Z" stroke="white" stroke-miterlimit="10"/>
<path d="M290.325 197.3L257.5 219.159V175.44L290.325 153.581V197.3Z" stroke="white" stroke-miterlimit="10"/>
<path d="M323.151 175.44L290.326 197.3V153.581L323.151 131.721V175.44Z" stroke="white" stroke-miterlimit="10"/>
<path d="M93.3726 372.175L60.5471 394.035V350.316L93.3726 328.457V372.175Z" stroke="white" stroke-miterlimit="10"/>
<path d="M126.198 350.316L93.3726 372.176V328.457L126.198 306.597V350.316Z" stroke="white" stroke-miterlimit="10"/>
<path d="M159.024 328.457L126.198 350.316V306.597L159.024 284.738V328.457Z" stroke="white" stroke-miterlimit="10"/>
<path d="M191.849 306.597L159.024 328.457V284.738L191.849 262.878V306.597Z" stroke="white" stroke-miterlimit="10"/>
<path d="M224.675 284.738L191.849 306.597V262.878L224.675 241.019V284.738Z" stroke="white" stroke-miterlimit="10"/>
<path d="M257.5 262.878L224.675 284.738V241.019L257.5 219.159V262.878Z" stroke="white" stroke-miterlimit="10"/>
<path d="M290.325 241.019L257.5 262.878V219.159L290.325 197.3V241.019Z" stroke="white" stroke-miterlimit="10"/>
<path d="M323.151 219.159L290.326 241.019V197.3L323.151 175.44V219.159Z" stroke="white" stroke-miterlimit="10"/>
<path d="M93.3726 415.894L60.5471 437.754V394.035L93.3726 372.176V415.894Z" stroke="white" stroke-miterlimit="10"/>
<path d="M126.198 394.035L93.3726 415.894V372.176L126.198 350.316V394.035Z" stroke="white" stroke-miterlimit="10"/>
<path d="M159.024 372.175L126.198 394.035V350.316L159.024 328.457V372.175Z" stroke="white" stroke-miterlimit="10"/>
<path d="M191.849 350.316L159.024 372.176V328.457L191.849 306.597V350.316Z" stroke="white" stroke-miterlimit="10"/>
<path d="M224.675 328.457L191.849 350.316V306.597L224.675 284.738V328.457Z" stroke="white" stroke-miterlimit="10"/>
<path d="M257.5 306.597L224.675 328.457V284.738L257.5 262.878V306.597Z" stroke="white" stroke-miterlimit="10"/>
<path d="M290.325 284.738L257.5 306.597V262.878L290.325 241.019V284.738Z" stroke="white" stroke-miterlimit="10"/>
<path d="M323.151 262.878L290.326 284.738V241.019L323.151 219.159V262.878Z" stroke="white" stroke-miterlimit="10"/>
<path d="M93.3726 459.613L60.5471 481.473V437.754L93.3726 415.895V459.613Z" stroke="white" stroke-miterlimit="10"/>
<path d="M126.198 437.754L93.3726 459.613V415.894L126.198 394.035V437.754Z" stroke="white" stroke-miterlimit="10"/>
<path d="M159.024 415.894L126.198 437.754V394.035L159.024 372.176V415.894Z" stroke="white" stroke-miterlimit="10"/>
<path d="M191.849 394.035L159.024 415.894V372.176L191.849 350.316V394.035Z" stroke="white" stroke-miterlimit="10"/>
<path d="M224.675 372.175L191.849 394.035V350.316L224.675 328.457V372.175Z" stroke="white" stroke-miterlimit="10"/>
<path d="M257.5 350.316L224.675 372.176V328.457L257.5 306.597V350.316Z" stroke="white" stroke-miterlimit="10"/>
<path d="M290.325 328.457L257.5 350.316V306.597L290.325 284.738V328.457Z" stroke="white" stroke-miterlimit="10"/>
<path d="M323.151 306.597L290.326 328.457V284.738L323.151 262.878V306.597Z" stroke="white" stroke-miterlimit="10"/>
<path d="M93.3726 503.332L60.5471 525.192V481.473L93.3726 459.613V503.332Z" stroke="white" stroke-miterlimit="10"/>
<path d="M126.198 481.473L93.3726 503.332V459.613L126.198 437.754V481.473Z" stroke="white" stroke-miterlimit="10"/>
<path d="M159.024 459.613L126.198 481.473V437.754L159.024 415.895V459.613Z" stroke="white" stroke-miterlimit="10"/>
<path d="M191.849 437.754L159.024 459.613V415.894L191.849 394.035V437.754Z" stroke="white" stroke-miterlimit="10"/>
<path d="M224.675 415.894L191.849 437.754V394.035L224.675 372.176V415.894Z" stroke="white" stroke-miterlimit="10"/>
<path d="M257.5 394.035L224.675 415.894V372.176L257.5 350.316V394.035Z" stroke="white" stroke-miterlimit="10"/>
<path d="M290.325 372.175L257.5 394.035V350.316L290.325 328.457V372.175Z" stroke="white" stroke-miterlimit="10"/>
<path d="M323.151 350.316L290.326 372.176V328.457L323.151 306.597V350.316Z" stroke="white" stroke-miterlimit="10"/>
<path d="M126.198 525.198L93.3726 547.057L60.5471 525.198L93.3726 503.344L126.198 525.198Z" stroke="white" stroke-miterlimit="10"/>
<path d="M159.024 503.344L126.198 525.198L93.3726 503.344L126.198 481.485L159.024 503.344Z" stroke="white" stroke-miterlimit="10"/>
<path d="M191.849 481.485L159.024 503.344L126.198 481.485L159.024 459.625L191.849 481.485Z" stroke="white" stroke-miterlimit="10"/>
<path d="M224.675 459.626L191.849 481.485L159.024 459.626L191.849 437.766L224.675 459.626Z" stroke="white" stroke-miterlimit="10"/>
<path d="M257.5 437.766L224.675 459.626L191.849 437.766L224.675 415.913L257.5 437.766Z" stroke="white" stroke-miterlimit="10"/>
<path d="M290.325 415.913L257.5 437.766L224.675 415.913L257.5 394.053L290.325 415.913Z" stroke="white" stroke-miterlimit="10"/>
<path d="M323.151 394.053L290.325 415.913L257.5 394.053L290.325 372.194L323.151 394.053Z" stroke="white" stroke-miterlimit="10"/>
<path d="M355.976 372.194L323.151 394.053L290.326 372.194L323.151 350.334L355.976 372.194Z" stroke="white" stroke-miterlimit="10"/>
<path d="M159.024 547.057L126.198 568.917L93.3726 547.057L126.198 525.198L159.024 547.057Z" stroke="white" stroke-miterlimit="10"/>
<path d="M191.849 525.198L159.024 547.057L126.198 525.198L159.024 503.344L191.849 525.198Z" stroke="white" stroke-miterlimit="10"/>
<path d="M224.675 503.344L191.849 525.198L159.024 503.344L191.849 481.485L224.675 503.344Z" stroke="white" stroke-miterlimit="10"/>
<path d="M257.5 481.485L224.675 503.344L191.849 481.485L224.675 459.625L257.5 481.485Z" stroke="white" stroke-miterlimit="10"/>
<path d="M290.325 459.626L257.5 481.485L224.675 459.626L257.5 437.766L290.325 459.626Z" stroke="white" stroke-miterlimit="10"/>
<path d="M323.151 437.766L290.325 459.626L257.5 437.766L290.325 415.913L323.151 437.766Z" stroke="white" stroke-miterlimit="10"/>
<path d="M355.976 415.913L323.151 437.766L290.326 415.913L323.151 394.053L355.976 415.913Z" stroke="white" stroke-miterlimit="10"/>
<path d="M388.802 394.053L355.976 415.913L323.151 394.053L355.976 372.194L388.802 394.053Z" stroke="white" stroke-miterlimit="10"/>
<path d="M191.849 568.917L159.024 590.776L126.198 568.917L159.024 547.057L191.849 568.917Z" stroke="white" stroke-miterlimit="10"/>
<path d="M224.675 547.057L191.849 568.917L159.024 547.057L191.849 525.198L224.675 547.057Z" stroke="white" stroke-miterlimit="10"/>
<path d="M257.5 525.198L224.675 547.057L191.849 525.198L224.675 503.344L257.5 525.198Z" stroke="white" stroke-miterlimit="10"/>
<path d="M290.325 503.344L257.5 525.198L224.675 503.344L257.5 481.485L290.325 503.344Z" stroke="white" stroke-miterlimit="10"/>
<path d="M323.151 481.485L290.325 503.344L257.5 481.485L290.325 459.625L323.151 481.485Z" stroke="white" stroke-miterlimit="10"/>
<path d="M355.976 459.626L323.151 481.485L290.326 459.626L323.151 437.766L355.976 459.626Z" stroke="white" stroke-miterlimit="10"/>
<path d="M388.802 437.766L355.976 459.626L323.151 437.766L355.976 415.913L388.802 437.766Z" stroke="white" stroke-miterlimit="10"/>
<path d="M421.627 415.913L388.802 437.766L355.976 415.913L388.802 394.053L421.627 415.913Z" stroke="white" stroke-miterlimit="10"/>
<path d="M224.675 590.776L191.849 612.63L159.024 590.776L191.849 568.917L224.675 590.776Z" stroke="white" stroke-miterlimit="10"/>
<path d="M257.5 568.917L224.675 590.776L191.849 568.917L224.675 547.057L257.5 568.917Z" stroke="white" stroke-miterlimit="10"/>
<path d="M290.325 547.057L257.5 568.917L224.675 547.057L257.5 525.198L290.325 547.057Z" stroke="white" stroke-miterlimit="10"/>
<path d="M323.151 525.198L290.325 547.057L257.5 525.198L290.325 503.344L323.151 525.198Z" stroke="white" stroke-miterlimit="10"/>
<path d="M355.976 503.344L323.151 525.198L290.326 503.344L323.151 481.485L355.976 503.344Z" stroke="white" stroke-miterlimit="10"/>
<path d="M388.802 481.485L355.976 503.344L323.151 481.485L355.976 459.625L388.802 481.485Z" stroke="white" stroke-miterlimit="10"/>
<path d="M421.627 459.626L388.802 481.485L355.976 459.626L388.802 437.766L421.627 459.626Z" stroke="white" stroke-miterlimit="10"/>
<path d="M454.453 437.766L421.627 459.626L388.802 437.766L421.627 415.913L454.453 437.766Z" stroke="white" stroke-miterlimit="10"/>
<path d="M356.207 66.3738L323.455 44.5872V0.868286L356.207 22.6549V66.3738Z" stroke="white" stroke-miterlimit="10"/>
<path d="M388.954 88.1543L356.207 66.3738V22.6549L388.954 44.4354V88.1543Z" stroke="white" stroke-miterlimit="10"/>
<path d="M421.706 109.941L388.954 88.1543V44.4354L421.706 66.222V109.941Z" stroke="white" stroke-miterlimit="10"/>
<path d="M454.453 131.721L421.706 109.941V66.222L454.453 88.0026V131.721Z" stroke="white" stroke-miterlimit="10"/>
<path d="M356.207 110.093L323.455 88.3062V44.5873L356.207 66.3739V110.093Z" stroke="white" stroke-miterlimit="10"/>
<path d="M388.954 131.873L356.207 110.093V66.3738L388.954 88.1543V131.873Z" stroke="white" stroke-miterlimit="10"/>
<path d="M421.706 153.66L388.954 131.873V88.1543L421.706 109.941V153.66Z" stroke="white" stroke-miterlimit="10"/>
<path d="M454.453 175.44L421.706 153.66V109.941L454.453 131.721V175.44Z" stroke="white" stroke-miterlimit="10"/>
<path d="M356.207 153.812L323.455 132.025V88.3062L356.207 110.093V153.812Z" stroke="white" stroke-miterlimit="10"/>
<path d="M388.954 175.592L356.207 153.812V110.093L388.954 131.873V175.592Z" stroke="white" stroke-miterlimit="10"/>
<path d="M421.706 197.379L388.954 175.592V131.873L421.706 153.66V197.379Z" stroke="white" stroke-miterlimit="10"/>
<path d="M454.453 219.159L421.706 197.379V153.66L454.453 175.44V219.159Z" stroke="white" stroke-miterlimit="10"/>
<path d="M356.207 197.531L323.455 175.744V132.025L356.207 153.812V197.531Z" stroke="white" stroke-miterlimit="10"/>
<path d="M388.954 219.311L356.207 197.531V153.812L388.954 175.592V219.311Z" stroke="white" stroke-miterlimit="10"/>
<path d="M421.706 241.098L388.954 219.311V175.592L421.706 197.379V241.098Z" stroke="white" stroke-miterlimit="10"/>
<path d="M454.453 262.878L421.706 241.098V197.379L454.453 219.159V262.878Z" stroke="white" stroke-miterlimit="10"/>
<path d="M356.207 241.25L323.455 219.463V175.744L356.207 197.531V241.25Z" stroke="white" stroke-miterlimit="10"/>
<path d="M388.954 263.03L356.207 241.25V197.531L388.954 219.311V263.03Z" stroke="white" stroke-miterlimit="10"/>
<path d="M421.706 284.817L388.954 263.03V219.311L421.706 241.098V284.817Z" stroke="white" stroke-miterlimit="10"/>
<path d="M454.453 306.597L421.706 284.817V241.098L454.453 262.878V306.597Z" stroke="white" stroke-miterlimit="10"/>
<path d="M356.207 284.968L323.455 263.182V219.463L356.207 241.249V284.968Z" stroke="white" stroke-miterlimit="10"/>
<path d="M388.954 306.749L356.207 284.968V241.25L388.954 263.03V306.749Z" stroke="white" stroke-miterlimit="10"/>
<path d="M421.706 328.536L388.954 306.749V263.03L421.706 284.817V328.536Z" stroke="white" stroke-miterlimit="10"/>
<path d="M454.453 350.316L421.706 328.536V284.817L454.453 306.597V350.316Z" stroke="white" stroke-miterlimit="10"/>
<path d="M356.207 328.687L323.455 306.901V263.182L356.207 284.968V328.687Z" stroke="white" stroke-miterlimit="10"/>
<path d="M388.954 350.468L356.207 328.687V284.969L388.954 306.749V350.468Z" stroke="white" stroke-miterlimit="10"/>
<path d="M421.706 372.255L388.954 350.468V306.749L421.706 328.536V372.255Z" stroke="white" stroke-miterlimit="10"/>
<path d="M454.453 394.035L421.706 372.254V328.536L454.453 350.316V394.035Z" stroke="white" stroke-miterlimit="10"/>
<path d="M356.207 372.406L323.455 350.62V306.901L356.207 328.687V372.406Z" stroke="white" stroke-miterlimit="10"/>
<path d="M388.954 394.187L356.207 372.406V328.687L388.954 350.468V394.187Z" stroke="white" stroke-miterlimit="10"/>
<path d="M421.706 415.973L388.954 394.187V350.468L421.706 372.254V415.973Z" stroke="white" stroke-miterlimit="10"/>
<path d="M454.453 437.754L421.706 415.973V372.255L454.453 394.035V437.754Z" stroke="white" stroke-miterlimit="10"/>
</g>
<g clip-path="url(#clip1_1_1789)">
<path d="M8.9 335.36C8.89014 334.581 8.65012 333.822 8.21013 333.179C7.77015 332.536 7.14986 332.038 6.42727 331.747C5.70469 331.455 4.9121 331.384 4.1492 331.542C3.3863 331.7 2.68716 332.08 2.13973 332.635C1.59231 333.189 1.22104 333.893 1.07264 334.658C0.924234 335.423 1.00532 336.214 1.3057 336.933C1.60608 337.652 2.11234 338.266 2.76078 338.698C3.40923 339.13 4.17091 339.36 4.95 339.36C5.47295 339.36 5.99071 339.256 6.47324 339.055C6.95576 338.853 7.39345 338.558 7.7609 338.186C8.12835 337.813 8.41826 337.372 8.6138 336.887C8.80934 336.402 8.90662 335.883 8.9 335.36Z" fill="white"/>
<path d="M16.81 319.56C16.7968 320.612 16.3696 321.617 15.6209 322.356C14.8722 323.096 13.8623 323.51 12.81 323.51C11.7577 323.51 10.7478 323.096 9.9991 322.356C9.25038 321.617 8.82315 320.612 8.81 319.56C8.81 318.779 8.57833 318.015 8.1443 317.366C7.71027 316.716 7.09337 316.21 6.3716 315.911C5.64983 315.612 4.85561 315.534 4.08939 315.686C3.32316 315.838 2.61934 316.215 2.06693 316.767C1.51451 317.319 1.13831 318.023 0.985897 318.789C0.833485 319.556 0.911708 320.35 1.21067 321.072C1.50964 321.793 2.01592 322.41 2.6655 322.844C3.31507 323.278 4.07876 323.51 4.86 323.51C5.90357 323.523 6.90076 323.943 7.63873 324.681C8.37671 325.419 8.79704 326.417 8.81 327.46C8.81 328.521 9.23143 329.538 9.98157 330.289C10.7317 331.039 11.7491 331.46 12.81 331.46C13.8623 331.46 14.8722 331.875 15.6209 332.614C16.3696 333.353 16.7968 334.358 16.81 335.41C16.8001 336.203 17.0262 336.981 17.4597 337.646C17.8931 338.31 18.5143 338.831 19.2443 339.141C19.9743 339.451 20.7801 339.538 21.5593 339.389C22.3384 339.241 23.0558 338.864 23.6203 338.306C24.1847 337.749 24.5706 337.036 24.7291 336.259C24.8875 335.482 24.8113 334.675 24.5101 333.941C24.2088 333.207 23.6962 332.58 23.0374 332.138C22.3786 331.696 21.6032 331.46 20.81 331.46C19.7624 331.46 18.7577 331.044 18.0169 330.303C17.2762 329.562 16.86 328.558 16.86 327.51C16.86 326.462 17.2762 325.458 18.0169 324.717C18.7577 323.976 19.7624 323.56 20.81 323.56C21.6032 323.56 22.3786 323.324 23.0374 322.882C23.6962 322.441 24.2088 321.813 24.5101 321.079C24.8113 320.345 24.8875 319.538 24.7291 318.761C24.5706 317.984 24.1847 317.271 23.6203 316.714C23.0558 316.157 22.3384 315.78 21.5593 315.631C20.7801 315.482 19.9743 315.569 19.2443 315.879C18.5143 316.19 17.8931 316.71 17.4597 317.374C17.0262 318.039 16.8001 318.817 16.81 319.61L16.81 319.56Z" fill="white"/>
<path d="M16.81 303.75C16.81 304.541 17.0446 305.315 17.4841 305.972C17.9236 306.63 18.5484 307.143 19.2793 307.446C20.0102 307.748 20.8144 307.828 21.5904 307.673C22.3663 307.519 23.079 307.138 23.6384 306.579C24.1978 306.019 24.5788 305.306 24.7331 304.53C24.8875 303.755 24.8083 302.95 24.5055 302.219C24.2028 301.488 23.6901 300.864 23.0323 300.424C22.3745 299.985 21.6011 299.75 20.81 299.75C19.7491 299.75 18.7317 300.172 17.9816 300.922C17.2314 301.672 16.81 302.689 16.81 303.75Z" fill="white"/>
<path d="M8.9 287.95C8.9 287.169 8.66833 286.405 8.2343 285.756C7.80027 285.106 7.18336 284.6 6.4616 284.301C5.73983 284.002 4.94561 283.924 4.17939 284.076C3.41316 284.228 2.70934 284.605 2.15692 285.157C1.60451 285.709 1.22831 286.413 1.0759 287.179C0.923484 287.946 1.00171 288.74 1.30067 289.462C1.59964 290.183 2.10592 290.8 2.7555 291.234C3.40507 291.668 4.16876 291.9 4.95 291.9C5.9976 291.9 7.0023 291.484 7.74307 290.743C8.48384 290.002 8.9 288.998 8.9 287.95Z" fill="white"/>
<path d="M16.81 287.95C16.7968 289.002 16.3696 290.007 15.6209 290.746C14.8722 291.486 13.8623 291.9 12.81 291.9C11.7491 291.9 10.7317 292.321 9.98157 293.072C9.23143 293.822 8.81 294.839 8.81 295.9C8.79704 296.944 8.37671 297.941 7.63873 298.679C6.90076 299.417 5.90357 299.837 4.86 299.85C3.91358 299.993 3.04988 300.471 2.42572 301.197C1.80155 301.922 1.45831 302.848 1.45831 303.805C1.45831 304.762 1.80155 305.688 2.42572 306.413C3.04988 307.139 3.91358 307.617 4.86 307.76C5.38333 307.759 5.90171 307.861 6.38484 308.063C6.86798 308.264 7.3062 308.559 7.67392 308.932C8.04165 309.304 8.3315 309.746 8.52655 310.231C8.72161 310.717 8.81797 311.237 8.81 311.76C8.81 312.551 9.04459 313.324 9.48412 313.982C9.92365 314.64 10.5484 315.153 11.2793 315.456C12.0102 315.758 12.8144 315.837 13.5904 315.683C14.3663 315.529 15.079 315.148 15.6384 314.588C16.1978 314.029 16.5788 313.316 16.7331 312.54C16.8875 311.764 16.8083 310.96 16.5055 310.229C16.2028 309.498 15.6901 308.874 15.0323 308.434C14.3745 307.995 13.6011 307.76 12.81 307.76C12.2406 307.846 11.6593 307.808 11.1059 307.649C10.5525 307.49 10.04 307.213 9.60336 306.838C9.16677 306.462 8.8164 305.997 8.57621 305.473C8.33603 304.95 8.21169 304.381 8.21169 303.805C8.21169 303.229 8.33603 302.66 8.57621 302.137C8.8164 301.613 9.16677 301.148 9.60336 300.772C10.04 300.397 10.5525 300.12 11.1059 299.961C11.6593 299.802 12.2406 299.764 12.81 299.85C13.8623 299.85 14.8722 299.436 15.6209 298.696C16.3696 297.957 16.7968 296.952 16.81 295.9C16.81 294.839 17.2314 293.822 17.9816 293.072C18.7317 292.321 19.7491 291.9 20.81 291.9C21.589 291.89 22.3477 291.65 22.9907 291.21C23.6337 290.77 24.1322 290.15 24.4235 289.427C24.7148 288.705 24.7859 287.912 24.6279 287.149C24.4699 286.386 24.0898 285.687 23.5354 285.14C22.9811 284.592 22.2772 284.221 21.5124 284.073C20.7476 283.924 19.9559 284.005 19.2371 284.306C18.5182 284.606 17.9042 285.112 17.4724 285.761C17.0405 286.409 16.8101 287.171 16.81 287.95Z" fill="white"/>
</g>
<path d="M170.501 223.045V209.305H181.121C181.854 209.305 182.507 209.451 183.081 209.745C183.667 210.025 184.127 210.418 184.461 210.925C184.794 211.431 184.961 212.025 184.961 212.705C184.961 213.225 184.861 213.698 184.661 214.125C184.461 214.551 184.187 214.911 183.841 215.205C183.507 215.485 183.127 215.698 182.701 215.845V215.925C183.207 216.031 183.661 216.238 184.061 216.545C184.461 216.838 184.774 217.218 185.001 217.685C185.227 218.138 185.341 218.665 185.341 219.265C185.341 220.118 185.147 220.825 184.761 221.385C184.387 221.945 183.881 222.365 183.241 222.645C182.614 222.911 181.907 223.045 181.121 223.045H170.501ZM173.541 220.505H180.501C181.007 220.505 181.421 220.378 181.741 220.125C182.061 219.871 182.221 219.471 182.221 218.925C182.221 218.605 182.154 218.325 182.021 218.085C181.887 217.831 181.687 217.638 181.421 217.505C181.154 217.371 180.807 217.305 180.381 217.305H173.541V220.505ZM173.541 214.825H180.141C180.514 214.825 180.827 214.765 181.081 214.645C181.334 214.511 181.527 214.331 181.661 214.105C181.794 213.878 181.861 213.631 181.861 213.365C181.861 212.858 181.714 212.478 181.421 212.225C181.127 211.971 180.741 211.845 180.261 211.845H173.541V214.825ZM193.071 223.045V211.985H186.971V209.305H202.211V211.985H196.111V223.045H193.071ZM211.993 223.285C210.139 223.285 208.586 223.018 207.333 222.485C206.079 221.938 205.139 221.138 204.513 220.085C203.886 219.018 203.573 217.711 203.573 216.165C203.573 213.898 204.293 212.151 205.733 210.925C207.173 209.685 209.253 209.065 211.973 209.065C213.519 209.065 214.879 209.285 216.053 209.725C217.239 210.165 218.159 210.798 218.813 211.625C219.479 212.451 219.813 213.451 219.813 214.625H216.833C216.833 213.958 216.626 213.405 216.213 212.965C215.799 212.511 215.226 212.171 214.493 211.945C213.759 211.718 212.899 211.605 211.913 211.605C210.846 211.605 209.919 211.778 209.133 212.125C208.359 212.458 207.759 212.945 207.333 213.585C206.906 214.225 206.693 214.998 206.693 215.905V216.405C206.693 217.325 206.906 218.111 207.333 218.765C207.759 219.405 208.366 219.898 209.153 220.245C209.939 220.578 210.866 220.745 211.933 220.745C212.959 220.745 213.839 220.638 214.573 220.425C215.319 220.198 215.893 219.865 216.293 219.425C216.706 218.971 216.913 218.418 216.913 217.765H219.833C219.833 218.911 219.506 219.898 218.853 220.725C218.199 221.551 217.286 222.185 216.113 222.625C214.939 223.065 213.566 223.285 211.993 223.285Z" fill="white"/>
<path d="M373.501 282.045V268.305H384.121C384.854 268.305 385.507 268.451 386.081 268.745C386.667 269.025 387.127 269.418 387.461 269.925C387.794 270.431 387.961 271.025 387.961 271.705C387.961 272.225 387.861 272.698 387.661 273.125C387.461 273.551 387.187 273.911 386.841 274.205C386.507 274.485 386.127 274.698 385.701 274.845V274.925C386.207 275.031 386.661 275.238 387.061 275.545C387.461 275.838 387.774 276.218 388.001 276.685C388.227 277.138 388.341 277.665 388.341 278.265C388.341 279.118 388.147 279.825 387.761 280.385C387.387 280.945 386.881 281.365 386.241 281.645C385.614 281.911 384.907 282.045 384.121 282.045H373.501ZM376.541 279.505H383.501C384.007 279.505 384.421 279.378 384.741 279.125C385.061 278.871 385.221 278.471 385.221 277.925C385.221 277.605 385.154 277.325 385.021 277.085C384.887 276.831 384.687 276.638 384.421 276.505C384.154 276.371 383.807 276.305 383.381 276.305H376.541V279.505ZM376.541 273.825H383.141C383.514 273.825 383.827 273.765 384.081 273.645C384.334 273.511 384.527 273.331 384.661 273.105C384.794 272.878 384.861 272.631 384.861 272.365C384.861 271.858 384.714 271.478 384.421 271.225C384.127 270.971 383.741 270.845 383.261 270.845H376.541V273.825ZM399.211 282.285C397.358 282.285 395.805 282.018 394.551 281.485C393.298 280.938 392.358 280.138 391.731 279.085C391.105 278.018 390.791 276.711 390.791 275.165C390.791 272.898 391.511 271.151 392.951 269.925C394.391 268.685 396.471 268.065 399.191 268.065C400.738 268.065 402.098 268.285 403.271 268.725C404.458 269.165 405.378 269.798 406.031 270.625C406.698 271.451 407.031 272.451 407.031 273.625H404.051C404.051 272.958 403.845 272.405 403.431 271.965C403.018 271.511 402.445 271.171 401.711 270.945C400.978 270.718 400.118 270.605 399.131 270.605C398.065 270.605 397.138 270.778 396.351 271.125C395.578 271.458 394.978 271.945 394.551 272.585C394.125 273.225 393.911 273.998 393.911 274.905V275.405C393.911 276.325 394.125 277.111 394.551 277.765C394.978 278.405 395.585 278.898 396.371 279.245C397.158 279.578 398.085 279.745 399.151 279.745C400.178 279.745 401.058 279.638 401.791 279.425C402.538 279.198 403.111 278.865 403.511 278.425C403.925 277.971 404.131 277.418 404.131 276.765H407.051C407.051 277.911 406.725 278.898 406.071 279.725C405.418 280.551 404.505 281.185 403.331 281.625C402.158 282.065 400.785 282.285 399.211 282.285ZM410.317 282.045V268.305H413.357V273.705H422.697V268.305H425.737V282.045H422.697V276.385H413.357V282.045H410.317Z" fill="white"/>
<path d="M125.501 351.045V337.305H139.401V339.845H128.541V342.785H138.201V345.325H128.541V348.505H139.561V351.045H125.501ZM147.505 351.045V339.985H141.405V337.305H156.645V339.985H150.545V351.045H147.505ZM159.114 351.045V337.305H162.154V342.705H171.494V337.305H174.534V351.045H171.494V345.385H162.154V351.045H159.114Z" fill="white"/>
<path d="M250.301 290.045L256.741 282.925L250.881 276.305H254.821L258.641 280.845H258.881L262.801 276.305H266.481L260.641 282.785L267.101 290.045H263.161L258.721 284.845H258.481L253.981 290.045H250.301ZM269.782 290.045V276.305H272.822V287.365H281.542V290.045H269.782ZM284.079 290.045V276.305H288.799L291.939 283.365C292.032 283.578 292.152 283.878 292.299 284.265C292.459 284.638 292.619 285.038 292.779 285.465C292.952 285.878 293.106 286.258 293.239 286.605H293.379C293.499 286.298 293.639 285.945 293.799 285.545C293.959 285.145 294.119 284.751 294.279 284.365C294.439 283.978 294.572 283.658 294.679 283.405L297.819 276.305H302.439V290.045H299.399V281.645C299.399 281.418 299.399 281.165 299.399 280.885C299.412 280.605 299.426 280.331 299.439 280.065C299.452 279.785 299.466 279.545 299.479 279.345H299.319C299.252 279.545 299.166 279.785 299.059 280.065C298.952 280.345 298.846 280.625 298.739 280.905C298.632 281.185 298.532 281.431 298.439 281.645L294.699 290.045H291.739L287.979 281.645C287.859 281.378 287.739 281.105 287.619 280.825C287.512 280.531 287.412 280.258 287.319 280.005C287.239 279.738 287.166 279.518 287.099 279.345H286.939C286.952 279.505 286.959 279.718 286.959 279.985C286.972 280.238 286.979 280.511 286.979 280.805C286.992 281.085 286.999 281.365 286.999 281.645V290.045H284.079Z" fill="white"/>
<path d="M345.201 144.285C344.161 144.285 343.187 144.218 342.281 144.085C341.374 143.965 340.581 143.745 339.901 143.425C339.221 143.091 338.687 142.631 338.301 142.045C337.927 141.458 337.741 140.705 337.741 139.785C337.741 139.758 337.741 139.725 337.741 139.685C337.741 139.645 337.747 139.611 337.761 139.585H340.761C340.747 139.638 340.734 139.705 340.721 139.785C340.721 139.851 340.721 139.931 340.721 140.025C340.721 140.438 340.901 140.778 341.261 141.045C341.621 141.298 342.134 141.485 342.801 141.605C343.467 141.725 344.247 141.785 345.141 141.785C345.527 141.785 345.914 141.771 346.301 141.745C346.701 141.705 347.081 141.651 347.441 141.585C347.801 141.518 348.121 141.425 348.401 141.305C348.694 141.185 348.921 141.038 349.081 140.865C349.254 140.678 349.341 140.465 349.341 140.225C349.341 139.878 349.181 139.605 348.861 139.405C348.554 139.191 348.134 139.018 347.601 138.885C347.067 138.751 346.467 138.638 345.801 138.545C345.134 138.451 344.441 138.351 343.721 138.245C343.014 138.125 342.327 137.971 341.661 137.785C340.994 137.585 340.394 137.331 339.861 137.025C339.327 136.718 338.901 136.325 338.581 135.845C338.274 135.351 338.121 134.751 338.121 134.045C338.121 133.405 338.274 132.838 338.581 132.345C338.887 131.851 339.341 131.438 339.941 131.105C340.541 130.758 341.274 130.498 342.141 130.325C343.021 130.151 344.027 130.065 345.161 130.065C346.307 130.065 347.307 130.158 348.161 130.345C349.014 130.531 349.721 130.798 350.281 131.145C350.841 131.491 351.254 131.911 351.521 132.405C351.801 132.885 351.941 133.425 351.941 134.025V134.345H348.981V134.085C348.981 133.791 348.821 133.531 348.501 133.305C348.181 133.078 347.747 132.898 347.201 132.765C346.654 132.631 346.034 132.565 345.341 132.565C344.381 132.565 343.601 132.625 343.001 132.745C342.401 132.865 341.961 133.031 341.681 133.245C341.401 133.445 341.261 133.671 341.261 133.925C341.261 134.231 341.414 134.478 341.721 134.665C342.041 134.851 342.467 135.005 343.001 135.125C343.534 135.231 344.134 135.331 344.801 135.425C345.467 135.518 346.154 135.625 346.861 135.745C347.581 135.865 348.274 136.018 348.941 136.205C349.607 136.391 350.207 136.645 350.741 136.965C351.274 137.271 351.694 137.665 352.001 138.145C352.321 138.611 352.481 139.191 352.481 139.885C352.481 140.951 352.174 141.811 351.561 142.465C350.947 143.105 350.094 143.571 349.001 143.865C347.907 144.145 346.641 144.285 345.201 144.285ZM363.733 144.285C361.906 144.285 360.333 144.011 359.013 143.465C357.693 142.905 356.673 142.098 355.953 141.045C355.246 139.978 354.893 138.685 354.893 137.165C354.893 135.645 355.246 134.358 355.953 133.305C356.673 132.251 357.693 131.451 359.013 130.905C360.333 130.345 361.906 130.065 363.733 130.065C365.56 130.065 367.133 130.345 368.453 130.905C369.773 131.451 370.786 132.251 371.493 133.305C372.213 134.358 372.573 135.645 372.573 137.165C372.573 138.685 372.213 139.978 371.493 141.045C370.786 142.098 369.773 142.905 368.453 143.465C367.133 144.011 365.56 144.285 363.733 144.285ZM363.733 141.745C364.56 141.745 365.32 141.651 366.013 141.465C366.706 141.278 367.306 141.005 367.813 140.645C368.333 140.285 368.733 139.831 369.013 139.285C369.306 138.738 369.453 138.105 369.453 137.385V136.925C369.453 136.205 369.306 135.578 369.013 135.045C368.733 134.498 368.333 134.045 367.813 133.685C367.306 133.325 366.706 133.058 366.013 132.885C365.32 132.698 364.56 132.605 363.733 132.605C362.906 132.605 362.146 132.698 361.453 132.885C360.76 133.058 360.153 133.325 359.633 133.685C359.126 134.045 358.733 134.498 358.453 135.045C358.173 135.578 358.033 136.205 358.033 136.925V137.385C358.033 138.105 358.173 138.738 358.453 139.285C358.733 139.831 359.126 140.285 359.633 140.645C360.153 141.005 360.76 141.278 361.453 141.465C362.146 141.651 362.906 141.745 363.733 141.745ZM375.845 144.045V130.305H378.885V141.365H387.605V144.045H375.845Z" fill="white"/>
<path d="M347.041 408.045L353.921 394.305H357.361L364.241 408.045H360.901L359.601 405.385H351.461L350.161 408.045H347.041ZM352.661 402.925H358.401L356.801 399.565C356.734 399.418 356.634 399.205 356.501 398.925C356.381 398.631 356.254 398.338 356.121 398.045C356.001 397.738 355.887 397.478 355.781 397.265C355.687 397.038 355.634 396.918 355.621 396.905H355.461C355.341 397.171 355.201 397.478 355.041 397.825C354.894 398.171 354.747 398.505 354.601 398.825C354.467 399.145 354.354 399.398 354.261 399.585L352.661 402.925ZM366.665 408.045V394.305H373.985C375.665 394.305 377.105 394.571 378.305 395.105C379.518 395.625 380.445 396.398 381.085 397.425C381.738 398.438 382.065 399.691 382.065 401.185C382.065 402.665 381.738 403.918 381.085 404.945C380.445 405.958 379.518 406.731 378.305 407.265C377.105 407.785 375.665 408.045 373.985 408.045H366.665ZM369.705 405.505H373.825C374.558 405.505 375.232 405.418 375.845 405.245C376.472 405.071 377.012 404.818 377.465 404.485C377.932 404.138 378.292 403.711 378.545 403.205C378.798 402.685 378.925 402.085 378.925 401.405V400.945C378.925 400.265 378.798 399.671 378.545 399.165C378.292 398.645 377.932 398.218 377.465 397.885C377.012 397.538 376.472 397.278 375.845 397.105C375.232 396.931 374.558 396.845 373.825 396.845H369.705V405.505ZM383.076 408.045L389.956 394.305H393.396L400.276 408.045H396.936L395.636 405.385H387.496L386.196 408.045H383.076ZM388.696 402.925H394.436L392.836 399.565C392.769 399.418 392.669 399.205 392.536 398.925C392.416 398.631 392.289 398.338 392.156 398.045C392.036 397.738 391.923 397.478 391.816 397.265C391.723 397.038 391.669 396.918 391.656 396.905H391.496C391.376 397.171 391.236 397.478 391.076 397.825C390.929 398.171 390.783 398.505 390.636 398.825C390.503 399.145 390.389 399.398 390.296 399.585L388.696 402.925Z" fill="white"/>
<path d="M209.181 452.045V440.985H203.081V438.305H218.321V440.985H212.221V452.045H209.181ZM220.79 452.045V438.305H231.67C232.643 438.305 233.437 438.505 234.05 438.905C234.677 439.291 235.143 439.811 235.45 440.465C235.757 441.105 235.91 441.818 235.91 442.605C235.91 443.418 235.697 444.185 235.27 444.905C234.857 445.611 234.21 446.165 233.33 446.565L236.25 452.045H232.83L230.31 447.145H223.83V452.045H220.79ZM223.83 444.625H230.83C231.457 444.625 231.937 444.445 232.27 444.085C232.617 443.711 232.79 443.238 232.79 442.665C232.79 442.278 232.717 441.951 232.57 441.685C232.423 441.405 232.203 441.198 231.91 441.065C231.617 440.918 231.257 440.845 230.83 440.845H223.83V444.625ZM247.428 452.285C245.602 452.285 244.028 452.011 242.708 451.465C241.388 450.905 240.368 450.098 239.648 449.045C238.942 447.978 238.588 446.685 238.588 445.165C238.588 443.645 238.942 442.358 239.648 441.305C240.368 440.251 241.388 439.451 242.708 438.905C244.028 438.345 245.602 438.065 247.428 438.065C249.255 438.065 250.828 438.345 252.148 438.905C253.468 439.451 254.482 440.251 255.188 441.305C255.908 442.358 256.268 443.645 256.268 445.165C256.268 446.685 255.908 447.978 255.188 449.045C254.482 450.098 253.468 450.905 252.148 451.465C250.828 452.011 249.255 452.285 247.428 452.285ZM247.428 449.745C248.255 449.745 249.015 449.651 249.708 449.465C250.402 449.278 251.002 449.005 251.508 448.645C252.028 448.285 252.428 447.831 252.708 447.285C253.002 446.738 253.148 446.105 253.148 445.385V444.925C253.148 444.205 253.002 443.578 252.708 443.045C252.428 442.498 252.028 442.045 251.508 441.685C251.002 441.325 250.402 441.058 249.708 440.885C249.015 440.698 248.255 440.605 247.428 440.605C246.602 440.605 245.842 440.698 245.148 440.885C244.455 441.058 243.848 441.325 243.328 441.685C242.822 442.045 242.428 442.498 242.148 443.045C241.868 443.578 241.728 444.205 241.728 444.925V445.385C241.728 446.105 241.868 446.738 242.148 447.285C242.428 447.831 242.822 448.285 243.328 448.645C243.848 449.005 244.455 449.278 245.148 449.465C245.842 449.651 246.602 449.745 247.428 449.745ZM259.54 452.045V438.305H262.4L269.92 445.525C270.093 445.671 270.3 445.871 270.54 446.125C270.78 446.378 271.027 446.638 271.28 446.905C271.547 447.171 271.773 447.411 271.96 447.625H272.12C272.107 447.331 272.087 446.978 272.06 446.565C272.047 446.138 272.04 445.791 272.04 445.525V438.305H274.96V452.045H272.16L264.62 444.745C264.26 444.398 263.88 444.018 263.48 443.605C263.093 443.178 262.78 442.838 262.54 442.585H262.4C262.413 442.758 262.427 443.065 262.44 443.505C262.453 443.931 262.46 444.425 262.46 444.985V452.045H259.54Z" fill="white"/>
<circle cx="184.561" cy="445.045" r="7" fill="white"/>
<circle cx="330.561" cy="401.045" r="7" fill="white"/>
<circle cx="321.061" cy="485.545" r="4.5" fill="white"/>
<circle cx="205.061" cy="476.545" r="4.5" fill="white"/>
<circle cx="145.061" cy="489.545" r="4.5" fill="white"/>
<circle cx="136.061" cy="460.545" r="4.5" fill="white"/>
<circle cx="406.061" cy="348.545" r="4.5" fill="white"/>
<circle cx="433.061" cy="326.545" r="4.5" fill="white"/>
<circle cx="374.061" cy="189.545" r="4.5" fill="white"/>
<circle cx="245.061" cy="205.545" r="4.5" fill="white"/>
<circle cx="191.061" cy="137.545" r="4.5" fill="white"/>
<circle cx="109.061" cy="205.545" r="4.5" fill="white"/>
<circle cx="114.061" cy="245.545" r="4.5" fill="white"/>
<circle cx="107.561" cy="344.045" r="7" fill="white"/>
<circle cx="152.561" cy="216.045" r="7" fill="white"/>
<circle cx="320.561" cy="137.045" r="7" fill="white"/>
<circle cx="355.561" cy="275.045" r="7" fill="white"/>
<circle cx="233.561" cy="283.045" r="7" fill="white"/>
<line x1="153.192" y1="216.269" x2="234.192" y2="282.269" stroke="white" stroke-width="2"/>
<line x1="152.135" y1="215.14" x2="320.135" y2="136.14" stroke="white" stroke-width="2"/>
<line x1="234.336" y1="281.413" x2="331.336" y2="400.413" stroke="white" stroke-width="2"/>
<line x1="356.542" y1="275.239" x2="331.542" y2="401.239" stroke="white" stroke-width="2"/>
<line x1="108.356" y1="343.438" x2="185.356" y2="444.438" stroke="white" stroke-width="2"/>
<line x1="234.518" y1="282.332" x2="185.518" y2="445.332" stroke="white" stroke-width="2"/>
<line x1="153.28" y1="216.349" x2="331.28" y2="400.349" stroke="white" stroke-width="2"/>
<line x1="108.613" y1="343.726" x2="151.613" y2="215.726" stroke="white" stroke-width="2"/>
<line x1="321.53" y1="136.799" x2="356.53" y2="274.799" stroke="white" stroke-width="2"/>
<line x1="183.858" y1="444.333" x2="354.858" y2="275.333" stroke="white" stroke-width="2"/>
<line x1="321.56" y1="137.007" x2="331.56" y2="401.007" stroke="white" stroke-width="2"/>
<line x1="321.418" y1="137.559" x2="234.418" y2="282.559" stroke="white" stroke-width="2"/>
<path d="M321.064 485.992L330.064 400.992M321.064 485.992L205.561 476.045M321.064 485.992L233.561 284.045" stroke="white"/>
<path d="M145.101 489.85L233.101 281.85M145.101 489.85L186.061 444.545M145.101 489.85L204.561 477.545M145.101 489.85L136.561 460.045M233.101 281.85L246.061 204.545M233.101 281.85L375.561 189.545M233.101 281.85L114.561 246.544M186.061 444.545L136.561 460.045M186.061 444.545L204.561 477.545M186.061 444.545L432.561 326.545M204.561 477.545L136.561 460.045M204.561 477.545L107.061 345.045M136.561 460.045L107.061 345.045M107.061 345.045L114.561 246.544M114.561 246.544L153.061 216.045M114.561 246.544L110.061 204.545M153.061 216.045L110.061 204.545M153.061 216.045L191.061 137.545M110.061 204.545L191.061 137.545M110.061 204.545L246.061 204.545M110.061 204.545C113.661 201.567 252.227 158.637 321.061 137.545M191.061 137.545L246.061 204.545M191.061 137.545L321.061 137.545M191.061 137.545L375.561 189.545M246.061 204.545L321.061 137.545M246.061 204.545C281.894 227.378 353.961 273.545 355.561 275.545M246.061 204.545L375.561 189.545M321.061 137.545L375.561 189.545M375.561 189.545L355.561 275.545M330.061 401.045L406.061 349.045M406.061 349.045L432.561 326.545M406.061 349.045L355.561 275.545M432.561 326.545L355.561 275.545" stroke="white"/>
<g clip-path="url(#clip2_1_1789)">
<path d="M8.54 228.29C8.54 229.425 8.08908 230.514 7.28642 231.316C6.48377 232.119 5.39513 232.57 4.26 232.57C3.4135 232.57 2.586 232.821 1.88216 233.291C1.17832 233.762 0.629743 234.43 0.3058 235.212C-0.0181431 235.994 -0.102902 236.855 0.0622431 237.685C0.227388 238.515 0.635019 239.278 1.23359 239.876C1.83216 240.475 2.59478 240.883 3.42502 241.048C4.25526 241.213 5.11582 241.128 5.89789 240.804C6.67995 240.48 7.3484 239.932 7.81869 239.228C8.28899 238.524 8.54 237.697 8.54 236.85C8.512 236.271 8.60182 235.693 8.80403 235.15C9.00623 234.607 9.3166 234.11 9.71633 233.691C10.1161 233.271 10.5968 232.937 11.1295 232.709C11.6621 232.481 12.2355 232.363 12.815 232.363C13.3945 232.363 13.9679 232.481 14.5006 232.709C15.0332 232.937 15.514 233.271 15.9137 233.691C16.3134 234.11 16.6238 234.607 16.826 235.15C17.0282 235.693 17.118 236.271 17.09 236.85C17.09 237.697 17.341 238.524 17.8113 239.228C18.2816 239.932 18.9501 240.48 19.7321 240.804C20.5142 241.128 21.3748 241.213 22.205 241.048C23.0352 240.883 23.7979 240.475 24.3964 239.876C24.995 239.278 25.4026 238.515 25.5678 237.685C25.7329 236.855 25.6481 235.994 25.3242 235.212C25.0003 234.43 24.4517 233.762 23.7478 233.291C23.044 232.821 22.2165 232.57 21.37 232.57C20.8079 232.57 20.2514 232.459 19.7321 232.244C19.2128 232.029 18.741 231.714 18.3436 231.316C17.9462 230.919 17.6309 230.447 17.4158 229.928C17.2007 229.409 17.09 228.852 17.09 228.29C17.118 227.711 17.0282 227.133 16.826 226.59C16.6238 226.047 16.3134 225.55 15.9137 225.131C15.514 224.711 15.0332 224.377 14.5006 224.149C13.9679 223.921 13.3945 223.803 12.815 223.803C12.2355 223.803 11.6621 223.921 11.1295 224.149C10.5968 224.377 10.1161 224.711 9.71633 225.131C9.3166 225.55 9.00623 226.047 8.80403 226.59C8.60182 227.133 8.512 227.711 8.54 228.29Z" fill="white"/>
<path d="M8.56 219.73C8.56 217.366 6.64378 215.45 4.28 215.45C1.91622 215.45 3.04745e-06 217.366 3.15078e-06 219.73C3.2541e-06 222.094 1.91622 224.01 4.28 224.01C6.64378 224.01 8.56 222.094 8.56 219.73Z" fill="white"/>
<path d="M25.67 219.73C25.67 217.366 23.7538 215.45 21.39 215.45C19.0262 215.45 17.11 217.366 17.11 219.73C17.11 222.094 19.0262 224.01 21.39 224.01C23.7538 224.01 25.67 222.094 25.67 219.73Z" fill="white"/>
<path d="M17.11 245.4C17.11 243.036 15.1938 241.12 12.83 241.12C10.4662 241.12 8.55 243.036 8.55 245.4C8.55 247.764 10.4662 249.68 12.83 249.68C15.1938 249.68 17.11 247.764 17.11 245.4Z" fill="white"/>
<path d="M8.54 194.06C8.53869 194.622 8.64816 195.178 8.86216 195.697C9.07616 196.216 9.39048 196.688 9.78712 197.086C10.1838 197.483 10.6549 197.799 11.1736 198.014C11.6923 198.229 12.2484 198.34 12.81 198.34C13.9451 198.34 15.0338 198.791 15.8364 199.594C16.6391 200.396 17.09 201.485 17.09 202.62C17.09 203.755 16.6391 204.844 15.8364 205.646C15.0338 206.449 13.9451 206.9 12.81 206.9C11.9635 206.9 11.136 207.151 10.4322 207.621C9.72832 208.092 9.17974 208.76 8.8558 209.542C8.53186 210.324 8.4471 211.185 8.61224 212.015C8.77739 212.845 9.18502 213.608 9.78359 214.206C10.3822 214.805 11.1448 215.213 11.975 215.378C12.8053 215.543 13.6658 215.458 14.4479 215.134C15.23 214.81 15.8984 214.262 16.3687 213.558C16.839 212.854 17.09 212.027 17.09 211.18C17.09 210.618 17.2007 210.061 17.4158 209.542C17.6309 209.023 17.9461 208.551 18.3436 208.154C18.741 207.756 19.2128 207.441 19.7321 207.226C20.2514 207.011 20.8079 206.9 21.37 206.9C22.5051 206.9 23.5938 206.449 24.3964 205.646C25.1991 204.844 25.65 203.755 25.65 202.62C25.65 201.485 25.1991 200.396 24.3964 199.594C23.5938 198.791 22.5051 198.34 21.37 198.34C20.8079 198.34 20.2514 198.229 19.7321 198.014C19.2128 197.799 18.741 197.484 18.3436 197.086C17.9461 196.689 17.6309 196.217 17.4158 195.698C17.2007 195.179 17.09 194.622 17.09 194.06C17.118 193.481 17.0282 192.903 16.826 192.36C16.6238 191.817 16.3134 191.32 15.9137 190.901C15.514 190.481 15.0332 190.147 14.5006 189.919C13.9679 189.691 13.3945 189.573 12.815 189.573C12.2355 189.573 11.6621 189.691 11.1294 189.919C10.5968 190.147 10.1161 190.481 9.71632 190.901C9.3166 191.32 9.00623 191.817 8.80402 192.36C8.60182 192.903 8.512 193.481 8.54 194.06Z" fill="white"/>
<path d="M8.54 202.62C8.54 201.774 8.28898 200.946 7.81869 200.242C7.3484 199.538 6.67995 198.99 5.89789 198.666C5.11582 198.342 4.25525 198.257 3.42502 198.422C2.59478 198.587 1.83215 198.995 1.23359 199.594C0.635018 200.192 0.227386 200.955 0.0622416 201.785C-0.102903 202.615 -0.0181445 203.476 0.305799 204.258C0.629742 205.04 1.17832 205.708 1.88216 206.179C2.586 206.649 3.4135 206.9 4.26 206.9C5.39513 206.9 6.48376 206.449 7.28642 205.646C8.08908 204.844 8.54 203.755 8.54 202.62Z" fill="white"/>
<path d="M8.54 185.51C8.54198 184.663 8.29265 183.835 7.82356 183.129C7.35447 182.424 6.68672 181.874 5.90483 181.549C5.12294 181.223 4.26206 181.137 3.43116 181.301C2.60027 181.465 1.83671 181.872 1.23714 182.47C0.63757 183.068 0.228944 183.831 0.0629871 184.661C-0.10297 185.492 -0.0187967 186.353 0.30485 187.136C0.628498 187.918 1.17707 188.587 1.88113 189.058C2.58518 189.529 3.41308 189.78 4.26 189.78C5.3934 189.78 6.48052 189.33 7.28289 188.53C8.08526 187.729 8.53736 186.643 8.54 185.51Z" fill="white"/>
<path d="M17.11 185.51C17.11 186.357 17.361 187.184 17.8313 187.888C18.3016 188.592 18.97 189.14 19.7521 189.464C20.5342 189.788 21.3948 189.873 22.225 189.708C23.0552 189.543 23.8179 189.135 24.4164 188.536C25.015 187.938 25.4226 187.175 25.5878 186.345C25.7529 185.515 25.6682 184.654 25.3442 183.872C25.0203 183.09 24.4717 182.422 23.7678 181.951C23.064 181.481 22.2365 181.23 21.39 181.23C20.2549 181.23 19.1662 181.681 18.3636 182.484C17.5609 183.286 17.11 184.375 17.11 185.51Z" fill="white"/>
<path d="M17.11 168.39C17.1113 168.953 17.0015 169.51 16.7869 170.03C16.5723 170.549 16.2571 171.022 15.8594 171.419C15.4617 171.817 14.9893 172.132 14.4694 172.347C13.9496 172.562 13.3924 172.671 12.83 172.67C11.9835 172.67 11.156 172.921 10.4522 173.391C9.74832 173.862 9.19974 174.53 8.8758 175.312C8.55185 176.094 8.4671 176.955 8.63224 177.785C8.79738 178.615 9.20501 179.378 9.80358 179.977C10.4021 180.575 11.1648 180.983 11.995 181.148C12.8253 181.313 13.6858 181.228 14.4679 180.904C15.25 180.58 15.9184 180.032 16.3887 179.328C16.859 178.624 17.11 177.797 17.11 176.95C17.11 175.815 17.5609 174.726 18.3636 173.924C19.1662 173.121 20.2549 172.67 21.39 172.67C22.2365 172.67 23.064 172.419 23.7678 171.949C24.4717 171.479 25.0203 170.81 25.3442 170.028C25.6681 169.246 25.7529 168.385 25.5878 167.555C25.4226 166.725 25.015 165.962 24.4164 165.364C23.8179 164.765 23.0552 164.357 22.225 164.192C21.3948 164.027 20.5342 164.112 19.7521 164.436C18.97 164.76 18.3016 165.308 17.8313 166.012C17.361 166.716 17.11 167.544 17.11 168.39Z" fill="white"/>
<path d="M17.11 151.28C17.138 151.859 17.0482 152.437 16.846 152.98C16.6438 153.523 16.3334 154.02 15.9337 154.439C15.534 154.859 15.0532 155.193 14.5206 155.421C13.9879 155.649 13.4145 155.767 12.835 155.767C12.2555 155.767 11.6821 155.649 11.1495 155.421C10.6168 155.193 10.136 154.859 9.73632 154.439C9.33659 154.02 9.02623 153.523 8.82402 152.98C8.62182 152.437 8.532 151.859 8.56 151.28C8.56 150.434 8.30898 149.606 7.83869 148.902C7.3684 148.198 6.69995 147.65 5.91789 147.326C5.13582 147.002 4.27525 146.917 3.44502 147.082C2.61478 147.247 1.85215 147.655 1.25358 148.254C0.655014 148.852 0.247386 149.615 0.0822414 150.445C-0.0829033 151.275 0.0018554 152.136 0.325799 152.918C0.649742 153.7 1.19832 154.368 1.90216 154.839C2.606 155.309 3.4335 155.56 4.28 155.56C5.41513 155.56 6.50376 156.011 7.30642 156.814C8.10908 157.616 8.56 158.705 8.56 159.84C8.56 160.975 8.10908 162.064 7.30642 162.867C6.50376 163.669 5.41513 164.12 4.28 164.12C3.43223 164.116 2.60238 164.364 1.8957 164.832C1.18901 165.301 0.637327 165.968 0.310609 166.751C-0.0161087 167.533 -0.103139 168.395 0.0605519 169.226C0.224243 170.058 0.631283 170.823 1.23005 171.423C1.82882 172.023 2.59234 172.432 3.42378 172.598C4.25522 172.763 5.11712 172.678 5.90018 172.353C6.68324 172.028 7.35217 171.478 7.82215 170.773C8.29213 170.067 8.54197 169.238 8.54 168.39C8.54 167.258 8.98988 166.172 9.79066 165.371C10.5914 164.57 11.6775 164.12 12.81 164.12C13.9451 164.12 15.0338 163.669 15.8364 162.867C16.6391 162.064 17.09 160.975 17.09 159.84C17.09 159.278 17.2007 158.721 17.4158 158.202C17.6309 157.683 17.9461 157.211 18.3436 156.814C18.741 156.416 19.2128 156.101 19.7321 155.886C20.2514 155.671 20.8079 155.56 21.37 155.56C22.2165 155.56 23.044 155.309 23.7478 154.839C24.4517 154.368 25.0003 153.7 25.3242 152.918C25.6481 152.136 25.7329 151.275 25.5678 150.445C25.4026 149.615 24.995 148.852 24.3964 148.254C23.7978 147.655 23.0352 147.247 22.205 147.082C21.3747 146.917 20.5142 147.002 19.7321 147.326C18.95 147.65 18.2816 148.198 17.8113 148.902C17.341 149.606 17.09 150.434 17.09 151.28L17.11 151.28Z" fill="white"/>
</g>
<defs>
<clipPath id="clip0_1_1789">
<rect width="395" height="613" fill="white" transform="translate(60)"/>
</clipPath>
<clipPath id="clip1_1_1789">
<rect width="55.31" height="23.71" fill="white" transform="translate(1 339.31) rotate(-90)"/>
</clipPath>
<clipPath id="clip2_1_1789">
<rect width="102.68" height="25.67" fill="white" transform="translate(4.29153e-06 249.68) rotate(-90)"/>
</clipPath>
</defs>
</svg>
